<?xml version="1.0" encoding="UTF-8" ?>
<!DOCTYPE svg PUBLIC "-//W3C//DTD SVG 1.1//EN" "http://www.w3.org/Graphics/SVG/1.1/DTD/svg11.dtd">
<svg width="200pt" height="200pt" viewBox="0 0 200 200" version="1.1" xmlns="http://www.w3.org/2000/svg">
<g id="#ffffffff">
</g>
<g id="#2e2e2eff">
<path fill="#2e2e2e" opacity="1.00" d=" M 71.84 0.00 L 78.13 0.00 C 77.83 0.58 77.25 1.73 76.96 2.31 C 68.97 3.94 61.24 7.66 55.33 13.33 C 55.28 12.93 55.19 12.15 55.14 11.76 C 59.62 6.87 65.88 4.35 71.63 1.36 L 71.84 0.00 Z" />
</g>
<g id="#5d5a54ff">
<path fill="#5d5a54" opacity="1.00" d=" M 78.13 0.00 L 95.48 0.00 C 95.66 0.81 96.03 2.42 96.21 3.23 C 102.51 1.79 108.89 3.05 115.04 4.55 C 109.90 4.80 104.66 4.27 99.61 5.55 C 94.70 6.57 90.15 8.78 85.30 10.02 C 82.73 10.40 80.56 11.75 79.28 14.04 C 76.76 14.71 74.21 15.39 71.93 16.69 C 71.70 16.83 71.24 17.11 71.02 17.25 C 66.20 17.79 61.46 18.88 56.64 19.35 C 57.24 18.80 58.45 17.70 59.06 17.15 C 64.93 14.99 70.46 12.07 75.86 8.92 C 81.61 5.63 88.02 3.81 94.49 2.60 C 88.67 1.91 82.80 2.22 76.96 2.31 C 77.25 1.73 77.83 0.58 78.13 0.00 Z" />
</g>
<g id="#3f3a30ff">
<path fill="#3f3a30" opacity="1.00" d=" M 95.48 0.00 L 144.43 0.00 C 147.96 3.89 153.29 4.93 157.34 8.08 C 150.45 6.39 143.36 5.71 136.58 3.58 C 130.29 1.99 123.61 1.79 117.23 2.98 C 118.25 4.03 119.28 5.07 120.31 6.11 C 117.77 6.17 115.22 6.21 112.68 6.34 C 108.95 5.84 105.19 5.74 101.44 5.70 L 99.61 5.55 C 104.66 4.27 109.90 4.80 115.04 4.55 C 108.89 3.05 102.51 1.79 96.21 3.23 C 96.03 2.42 95.66 0.81 95.48 0.00 Z" />
</g>
<g id="#483f44ff">
<path fill="#483f44" opacity="1.00" d=" M 144.43 0.00 L 150.06 0.00 C 149.46 1.58 151.14 3.30 152.60 2.01 C 158.01 4.00 162.54 7.66 167.52 10.46 C 171.31 12.60 174.66 15.40 177.88 18.31 C 178.08 18.32 178.49 18.34 178.69 18.35 C 180.03 18.35 181.37 18.32 182.71 18.28 C 183.22 19.40 183.67 20.55 184.11 21.71 C 184.83 29.50 188.91 36.70 188.53 44.63 C 186.36 42.23 185.33 39.17 184.85 36.03 C 183.93 30.30 179.12 26.51 176.19 21.82 C 174.33 18.72 171.46 16.48 168.33 14.77 C 164.71 12.46 161.02 10.29 157.34 8.08 C 153.29 4.93 147.96 3.89 144.43 0.00 Z" />
</g>
<g id="#8e8b86ff">
<path fill="#8e8b86" opacity="1.00" d=" M 150.06 0.00 L 152.83 0.00 C 152.77 0.50 152.66 1.51 152.60 2.01 C 151.14 3.30 149.46 1.58 150.06 0.00 Z" />
</g>
<g id="#fefcfcff">
</g>
<g id="#1e1d1dff">
<path fill="#1e1d1d" opacity="1.00" d=" M 173.15 0.00 L 174.16 0.00 C 177.03 6.08 179.75 12.24 182.71 18.28 C 181.37 18.32 180.03 18.35 178.69 18.35 C 176.86 12.23 175.15 6.07 173.15 0.00 Z" />
<path fill="#1e1d1d" opacity="1.00" d=" M 48.65 20.35 C 50.95 17.59 52.68 14.39 55.14 11.76 C 55.19 12.15 55.28 12.93 55.33 13.33 C 53.44 15.52 51.34 17.52 49.41 19.68 C 52.80 19.62 55.98 18.46 59.06 17.15 C 58.45 17.70 57.24 18.80 56.64 19.35 C 61.46 18.88 66.20 17.79 71.02 17.25 C 69.79 18.38 67.93 19.47 68.47 21.46 C 66.11 23.16 64.05 25.25 62.55 27.75 C 63.69 27.19 64.83 26.62 65.95 26.03 C 66.42 26.38 67.36 27.07 67.82 27.42 C 64.12 28.91 60.98 31.46 58.61 34.65 C 57.62 35.53 57.78 36.88 57.65 38.05 C 52.34 43.06 46.31 47.68 43.11 54.44 C 43.90 54.46 45.50 54.50 46.30 54.52 C 45.82 55.18 45.34 55.85 44.87 56.53 C 38.72 61.18 32.08 65.10 25.83 69.59 C 29.46 64.93 34.54 61.78 38.57 57.51 C 42.74 53.82 43.81 48.09 46.70 43.53 C 48.87 40.11 51.38 36.90 54.11 33.91 C 55.19 32.39 57.01 32.03 58.76 31.83 C 57.60 30.85 55.90 29.68 55.19 31.88 C 50.42 34.19 45.28 35.61 40.23 37.16 C 35.42 38.33 30.75 40.25 25.75 40.50 C 26.63 39.92 27.52 39.35 28.42 38.79 C 33.57 37.36 38.32 34.78 42.54 31.53 C 43.16 31.79 44.40 32.30 45.03 32.55 C 51.34 28.30 58.13 24.85 64.99 21.59 C 63.97 20.82 62.98 20.01 61.88 19.36 C 59.95 19.74 58.20 20.72 56.46 21.60 C 56.60 21.25 56.89 20.54 57.03 20.19 C 54.25 20.56 51.44 20.69 48.65 20.35 Z" />
</g>
<g id="#fdfefdff">
</g>
<g id="#fefcfbff">
</g>
<g id="#29251cff">
<path fill="#29251c" opacity="1.00" d=" M 117.23 2.98 C 123.61 1.79 130.29 1.99 136.58 3.58 C 143.36 5.71 150.45 6.39 157.34 8.08 C 161.02 10.29 164.71 12.46 168.33 14.77 C 166.32 14.49 164.31 14.30 162.30 14.10 C 163.23 15.05 164.15 16.00 165.08 16.94 C 164.61 17.30 163.66 18.02 163.19 18.37 C 161.93 17.37 160.65 16.38 159.36 15.41 C 156.57 17.74 153.65 15.54 151.10 14.06 C 149.25 14.94 147.52 16.48 145.42 16.56 C 141.06 13.85 137.89 9.38 132.88 7.69 C 133.36 7.38 134.32 6.76 134.80 6.45 C 134.58 6.28 134.14 5.93 133.92 5.76 C 132.09 5.74 130.25 5.72 128.42 5.70 C 128.42 6.42 128.41 7.14 128.41 7.86 C 126.20 8.05 124.00 8.24 121.79 8.31 C 118.37 7.67 114.93 7.17 111.48 6.77 L 112.68 6.34 C 115.22 6.21 117.77 6.17 120.31 6.11 C 119.28 5.07 118.25 4.03 117.23 2.98 Z" />
</g>
<g id="#242327ff">
<path fill="#242327" opacity="1.00" d=" M 128.42 5.70 C 130.25 5.72 132.09 5.74 133.92 5.76 C 134.14 5.93 134.58 6.28 134.80 6.45 C 134.32 6.76 133.36 7.38 132.88 7.69 L 131.86 8.31 C 138.70 15.31 147.32 21.21 150.98 30.68 C 151.45 39.28 154.71 47.70 152.85 56.38 C 152.29 52.89 151.87 49.39 151.45 45.89 C 149.29 51.61 150.25 57.91 148.70 63.79 C 147.80 62.55 146.91 61.31 146.01 60.08 C 145.86 65.58 147.18 71.01 146.88 76.50 L 146.17 77.49 C 145.33 72.04 145.32 66.48 143.97 61.12 C 142.80 56.69 142.33 52.12 141.56 47.62 C 139.35 50.76 139.95 54.74 139.40 58.34 C 138.15 68.15 132.66 76.86 125.92 83.86 C 123.97 85.78 122.02 87.73 120.63 90.10 C 119.87 89.28 119.12 88.46 118.38 87.65 C 118.50 86.54 118.62 85.44 118.74 84.34 C 118.26 84.44 117.30 84.63 116.81 84.73 C 122.80 76.53 127.51 67.33 130.11 57.50 C 130.90 52.63 132.39 47.93 133.42 43.13 C 134.83 38.50 135.60 33.71 135.45 28.87 C 135.76 31.95 136.05 35.04 136.24 38.14 C 137.00 34.47 138.31 30.94 140.14 27.66 C 142.33 30.60 144.12 33.81 145.85 37.04 C 145.83 32.80 145.63 28.49 144.43 24.40 C 143.23 21.58 141.02 19.29 138.73 17.31 C 137.66 18.10 136.69 19.01 135.69 19.89 C 134.20 17.97 133.38 15.70 133.15 13.30 C 129.47 11.39 125.68 9.72 121.79 8.31 C 124.00 8.24 126.20 8.05 128.41 7.86 C 128.41 7.14 128.42 6.42 128.42 5.70 Z" />
</g>
<g id="#302e23ff">
<path fill="#302e23" opacity="1.00" d=" M 85.30 10.02 C 90.15 8.78 94.70 6.57 99.61 5.55 L 101.44 5.70 C 100.00 6.32 98.57 6.97 97.13 7.59 C 100.24 7.67 103.37 8.14 106.12 9.66 C 101.11 11.09 95.99 12.13 90.83 12.84 C 91.34 12.54 92.37 11.93 92.89 11.63 C 90.32 11.32 87.75 10.91 85.30 10.02 Z" />
</g>
<g id="#1c1b15ff">
<path fill="#1c1b15" opacity="1.00" d=" M 101.44 5.70 C 105.19 5.74 108.95 5.84 112.68 6.34 L 111.48 6.77 C 110.00 6.99 108.51 7.18 107.02 7.34 C 109.95 7.88 112.82 8.73 115.58 9.86 C 114.08 10.54 112.58 11.21 111.08 11.88 C 112.92 12.57 114.77 13.27 116.60 13.98 C 112.73 15.98 108.62 17.43 104.57 19.01 C 104.83 18.53 105.34 17.55 105.60 17.07 C 105.96 16.42 106.34 15.78 106.72 15.14 C 101.46 15.25 96.17 13.87 90.94 14.96 C 88.23 15.52 85.46 15.63 82.70 15.65 C 85.29 14.40 88.00 13.40 90.83 12.84 C 95.99 12.13 101.11 11.09 106.12 9.66 C 103.37 8.14 100.24 7.67 97.13 7.59 C 98.57 6.97 100.00 6.32 101.44 5.70 Z" />
</g>
<g id="#0c0c0cff">
<path fill="#0c0c0c" opacity="1.00" d=" M 107.02 7.34 C 108.51 7.18 110.00 6.99 111.48 6.77 C 114.93 7.17 118.37 7.67 121.79 8.31 C 125.68 9.72 129.47 11.39 133.15 13.30 C 133.38 15.70 134.20 17.97 135.69 19.89 C 136.69 19.01 137.66 18.10 138.73 17.31 C 141.02 19.29 143.23 21.58 144.43 24.40 C 145.63 28.49 145.83 32.80 145.85 37.04 C 144.12 33.81 142.33 30.60 140.14 27.66 C 138.31 30.94 137.00 34.47 136.24 38.14 C 136.05 35.04 135.76 31.95 135.45 28.87 C 135.60 33.71 134.83 38.50 133.42 43.13 C 132.85 43.25 131.70 43.50 131.13 43.63 C 131.21 41.90 131.29 40.17 131.37 38.44 C 129.68 38.05 128.00 37.67 126.31 37.30 C 127.10 33.86 128.31 30.50 128.79 26.99 C 128.32 25.65 127.64 25.49 126.74 26.50 C 125.58 28.76 124.89 31.22 124.02 33.59 C 123.58 33.32 122.70 32.77 122.26 32.49 C 119.96 36.82 117.78 41.31 114.28 44.83 C 114.23 44.16 114.14 42.83 114.09 42.16 C 116.86 38.09 118.45 33.34 121.40 29.38 C 123.89 26.03 124.48 21.78 125.12 17.76 C 121.76 19.40 120.18 22.84 119.15 26.23 C 118.87 27.74 117.27 28.14 116.14 28.84 C 116.42 28.16 116.99 26.81 117.27 26.14 C 115.77 26.95 114.27 27.78 112.80 28.66 C 113.46 27.51 114.12 26.36 114.76 25.20 C 114.12 24.53 113.48 23.85 112.85 23.18 C 109.57 26.10 104.83 26.62 101.92 30.02 C 98.93 33.13 95.25 35.48 92.37 38.70 C 87.72 43.72 83.91 49.41 79.99 54.99 C 79.63 54.86 78.91 54.60 78.55 54.47 C 79.09 52.15 79.56 49.81 80.18 47.51 C 87.40 45.18 87.59 35.89 93.24 31.61 C 92.88 30.76 92.52 29.90 92.15 29.05 C 95.46 24.75 100.29 22.18 104.57 19.01 C 108.62 17.43 112.73 15.98 116.60 13.98 C 114.77 13.27 112.92 12.57 111.08 11.88 C 112.58 11.21 114.08 10.54 115.58 9.86 C 112.82 8.73 109.95 7.88 107.02 7.34 Z" />
</g>
<g id="#0d0d0dff">
<path fill="#0d0d0d" opacity="1.00" d=" M 131.86 8.31 L 132.88 7.69 C 137.89 9.38 141.06 13.85 145.42 16.56 C 147.52 16.48 149.25 14.94 151.10 14.06 C 153.65 15.54 156.57 17.74 159.36 15.41 C 160.65 16.38 161.93 17.37 163.19 18.37 C 166.45 20.91 169.57 23.70 171.74 27.26 C 174.31 31.46 178.19 34.56 182.18 37.33 C 181.45 38.15 180.72 38.96 180.00 39.77 C 178.44 38.39 176.91 36.97 175.45 35.49 C 174.40 33.65 172.69 32.43 170.75 31.67 C 171.14 33.29 171.60 34.89 172.15 36.46 C 171.98 37.18 171.65 38.61 171.48 39.33 C 170.37 37.79 169.35 36.18 168.37 34.55 C 167.81 34.31 166.67 33.83 166.10 33.59 C 165.00 33.14 163.91 32.70 162.82 32.26 C 163.60 36.50 164.61 40.71 164.91 45.02 C 163.12 41.69 161.61 38.23 160.15 34.75 C 159.27 32.77 158.06 30.97 156.76 29.24 C 155.62 32.77 155.82 36.55 154.87 40.12 C 153.61 36.96 152.43 33.76 150.98 30.68 C 147.32 21.21 138.70 15.31 131.86 8.31 Z" />
</g>
<g id="#444138ff">
<path fill="#444138" opacity="1.00" d=" M 79.28 14.04 C 80.56 11.75 82.73 10.40 85.30 10.02 C 87.75 10.91 90.32 11.32 92.89 11.63 C 92.37 11.93 91.34 12.54 90.83 12.84 C 88.00 13.40 85.29 14.40 82.70 15.65 C 79.16 16.43 75.55 16.80 71.93 16.69 C 74.21 15.39 76.76 14.71 79.28 14.04 Z" />
</g>
<g id="#0b0a08ff">
<path fill="#0b0a08" opacity="1.00" d=" M 90.94 14.96 C 96.17 13.87 101.46 15.25 106.72 15.14 C 106.34 15.78 105.96 16.42 105.60 17.07 C 100.64 18.76 95.94 21.34 92.10 24.92 C 88.67 25.07 85.54 26.53 82.99 28.78 C 83.67 26.81 84.31 24.83 84.92 22.83 C 78.61 23.25 73.03 26.68 67.95 30.17 C 64.44 32.69 61.12 35.47 57.65 38.05 C 57.78 36.88 57.62 35.53 58.61 34.65 C 60.98 31.46 64.12 28.91 67.82 27.42 C 67.36 27.07 66.42 26.38 65.95 26.03 C 69.00 24.36 72.02 22.66 74.97 20.84 C 72.92 19.06 70.50 20.55 68.47 21.46 C 67.93 19.47 69.79 18.38 71.02 17.25 C 71.24 17.11 71.70 16.83 71.93 16.69 C 75.55 16.80 79.16 16.43 82.70 15.65 C 85.46 15.63 88.23 15.52 90.94 14.96 Z" />
</g>
<g id="#252225ff">
<path fill="#252225" opacity="1.00" d=" M 162.30 14.10 C 164.31 14.30 166.32 14.49 168.33 14.77 C 171.46 16.48 174.33 18.72 176.19 21.82 C 179.12 26.51 183.93 30.30 184.85 36.03 C 185.33 39.17 186.36 42.23 188.53 44.63 C 189.30 45.65 190.10 46.65 190.88 47.67 C 193.28 50.91 195.45 54.41 196.48 58.34 C 197.28 61.39 198.01 64.53 200.00 67.07 L 200.00 72.99 C 195.89 68.89 196.02 62.56 193.40 57.61 C 190.02 50.98 185.80 44.54 180.00 39.77 C 180.72 38.96 181.45 38.15 182.18 37.33 C 178.19 34.56 174.31 31.46 171.74 27.26 C 169.57 23.70 166.45 20.91 163.19 18.37 C 163.66 18.02 164.61 17.30 165.08 16.94 C 164.15 16.00 163.23 15.05 162.30 14.10 Z" />
</g>
<g id="#942725ff">
<path fill="#942725" opacity="1.00" d=" M 188.06 22.82 C 191.66 19.97 195.66 17.58 200.00 16.05 L 200.00 50.46 C 197.10 46.83 192.68 43.97 191.85 39.09 C 191.11 35.06 189.00 31.42 188.35 27.40 C 187.97 24.29 191.30 22.94 193.18 21.12 C 191.45 21.63 189.73 22.14 188.06 22.82 Z" />
</g>
<g id="#282225ff">
<path fill="#282225" opacity="1.00" d=" M 92.10 24.92 C 95.94 21.34 100.64 18.76 105.60 17.07 C 105.34 17.55 104.83 18.53 104.57 19.01 C 100.29 22.18 95.46 24.75 92.15 29.05 C 92.52 29.90 92.88 30.76 93.24 31.61 C 87.59 35.89 87.40 45.18 80.18 47.51 C 80.81 45.36 81.71 43.31 82.62 41.27 C 82.31 41.36 81.69 41.53 81.38 41.62 C 85.89 36.68 88.48 30.47 92.10 24.92 Z" />
</g>
<g id="#1d1415ff">
<path fill="#1d1415" opacity="1.00" d=" M 119.15 26.23 C 120.18 22.84 121.76 19.40 125.12 17.76 C 124.48 21.78 123.89 26.03 121.40 29.38 C 118.45 33.34 116.86 38.09 114.09 42.16 C 112.52 44.75 111.46 47.59 110.40 50.42 L 110.29 48.92 C 107.90 52.30 105.90 55.92 103.92 59.53 C 102.68 61.36 101.28 63.17 101.07 65.46 C 100.52 65.49 99.40 65.55 98.84 65.58 C 99.22 65.37 99.98 64.96 100.36 64.76 C 101.01 61.84 102.13 59.06 103.50 56.42 C 106.57 50.28 109.25 43.96 112.02 37.68 C 113.36 34.72 114.74 31.77 116.14 28.84 C 117.27 28.14 118.87 27.74 119.15 26.23 Z" />
</g>
<g id="#3b3b39ff">
<path fill="#3b3b39" opacity="1.00" d=" M 56.46 21.60 C 58.20 20.72 59.95 19.74 61.88 19.36 C 62.98 20.01 63.97 20.82 64.99 21.59 C 58.13 24.85 51.34 28.30 45.03 32.55 C 44.40 32.30 43.16 31.79 42.54 31.53 C 46.57 28.67 50.39 25.53 54.52 22.82 C 55.16 22.41 55.81 22.01 56.46 21.60 Z" />
</g>
<g id="#8f8f8fff">
<path fill="#8f8f8f" opacity="1.00" d=" M 38.01 20.85 C 41.55 20.51 45.10 20.12 48.65 20.35 C 51.44 20.69 54.25 20.56 57.03 20.19 C 56.89 20.54 56.60 21.25 56.46 21.60 C 55.81 22.01 55.16 22.41 54.52 22.82 L 55.00 21.34 C 49.36 22.01 43.38 23.55 38.01 20.85 Z" />
</g>
<g id="#2f2e2cff">
<path fill="#2f2e2c" opacity="1.00" d=" M 68.47 21.46 C 70.50 20.55 72.92 19.06 74.97 20.84 C 72.02 22.66 69.00 24.36 65.95 26.03 C 64.83 26.62 63.69 27.19 62.55 27.75 C 64.05 25.25 66.11 23.16 68.47 21.46 Z" />
</g>
<g id="#612628ff">
<path fill="#612628" opacity="1.00" d=" M 188.06 22.82 C 189.73 22.14 191.45 21.63 193.18 21.12 C 191.30 22.94 187.97 24.29 188.35 27.40 C 189.00 31.42 191.11 35.06 191.85 39.09 C 192.68 43.97 197.10 46.83 200.00 50.46 L 200.00 56.79 C 197.18 53.55 195.23 49.13 190.88 47.67 C 190.10 46.65 189.30 45.65 188.53 44.63 C 188.91 36.70 184.83 29.50 184.11 21.71 C 184.58 22.75 185.07 23.78 185.59 24.80 C 186.21 24.30 187.44 23.31 188.06 22.82 Z" />
</g>
<g id="#191516ff">
<path fill="#191516" opacity="1.00" d=" M 67.95 30.17 C 73.03 26.68 78.61 23.25 84.92 22.83 C 84.31 24.83 83.67 26.81 82.99 28.78 C 85.54 26.53 88.67 25.07 92.10 24.92 C 88.48 30.47 85.89 36.68 81.38 41.62 C 74.38 48.51 67.33 55.54 62.01 63.84 C 60.96 65.12 59.60 66.07 58.29 67.05 C 58.82 66.54 59.90 65.52 60.44 65.01 C 60.50 64.23 60.61 62.69 60.67 61.91 C 60.82 61.62 61.11 61.03 61.25 60.73 C 62.57 58.06 63.68 55.30 64.91 52.58 C 66.66 49.16 68.49 45.77 70.17 42.31 C 69.91 42.26 69.38 42.16 69.11 42.11 C 68.60 42.00 67.58 41.79 67.07 41.69 C 63.21 44.53 59.21 47.17 55.24 49.87 C 55.26 50.38 55.30 51.41 55.32 51.93 C 54.12 51.50 52.92 51.08 51.72 50.65 C 55.34 47.23 58.91 43.72 63.03 40.88 C 66.13 38.68 69.22 36.46 72.03 33.89 C 70.65 33.52 69.29 33.08 68.10 32.28 C 68.61 31.82 69.63 30.90 70.14 30.44 C 69.59 30.37 68.50 30.23 67.95 30.17 Z" />
</g>
<g id="#241a1aff">
<path fill="#241a1a" opacity="1.00" d=" M 101.92 30.02 C 104.83 26.62 109.57 26.10 112.85 23.18 C 113.48 23.85 114.12 24.53 114.76 25.20 C 114.12 26.36 113.46 27.51 112.80 28.66 C 106.98 32.84 100.79 36.65 95.74 41.79 C 91.19 47.12 87.32 52.99 82.70 58.26 C 83.38 58.68 84.72 59.52 85.39 59.94 C 82.35 59.98 78.85 59.44 76.28 61.45 C 76.35 60.45 76.42 59.46 76.50 58.47 C 77.01 57.06 77.50 55.63 77.88 54.18 L 78.55 54.47 C 78.91 54.60 79.63 54.86 79.99 54.99 C 79.25 56.59 78.68 58.26 78.12 59.93 C 79.47 59.43 80.82 58.92 82.16 58.40 C 84.66 52.86 87.74 47.58 90.99 42.45 C 93.09 42.78 92.25 40.68 92.30 39.64 C 92.74 39.33 93.61 38.70 94.05 38.39 C 93.63 38.46 92.79 38.62 92.37 38.70 C 95.25 35.48 98.93 33.13 101.92 30.02 Z" />
</g>
<g id="#c3a39bff">
<path fill="#c3a39b" opacity="1.00" d=" M 112.80 28.66 C 114.27 27.78 115.77 26.95 117.27 26.14 C 116.99 26.81 116.42 28.16 116.14 28.84 C 114.74 31.77 113.36 34.72 112.02 37.68 C 108.36 38.68 105.66 41.52 102.48 43.44 C 96.00 47.44 90.54 52.81 84.76 57.73 C 88.52 58.51 92.31 59.16 96.10 59.79 C 96.29 60.25 96.65 61.17 96.84 61.63 C 93.61 61.14 90.38 60.70 87.15 60.29 C 86.71 60.20 85.83 60.03 85.39 59.94 C 84.72 59.52 83.38 58.68 82.70 58.26 C 87.32 52.99 91.19 47.12 95.74 41.79 C 100.79 36.65 106.98 32.84 112.80 28.66 Z" />
</g>
<g id="#111013ff">
<path fill="#111013" opacity="1.00" d=" M 126.74 26.50 C 127.64 25.49 128.32 25.65 128.79 26.99 C 128.31 30.50 127.10 33.86 126.31 37.30 C 128.00 37.67 129.68 38.05 131.37 38.44 C 131.29 40.17 131.21 41.90 131.13 43.63 C 131.70 43.50 132.85 43.25 133.42 43.13 C 132.39 47.93 130.90 52.63 130.11 57.50 C 127.51 67.33 122.80 76.53 116.81 84.73 C 114.93 87.43 112.58 89.74 110.18 91.97 C 109.95 91.44 109.51 90.38 109.29 89.85 C 111.80 79.64 112.50 69.08 114.74 58.81 C 113.99 60.31 113.26 61.83 112.52 63.34 C 111.67 61.03 112.26 58.64 112.37 56.29 C 111.94 54.73 110.84 53.45 110.08 52.05 C 110.16 51.64 110.32 50.82 110.40 50.42 C 111.46 47.59 112.52 44.75 114.09 42.16 C 114.14 42.83 114.23 44.16 114.28 44.83 C 117.78 41.31 119.96 36.82 122.26 32.49 C 122.70 32.77 123.58 33.32 124.02 33.59 C 124.89 31.22 125.58 28.76 126.74 26.50 Z" />
</g>
<g id="#454040ff">
<path fill="#454040" opacity="1.00" d=" M 57.65 38.05 C 61.12 35.47 64.44 32.69 67.95 30.17 C 68.50 30.23 69.59 30.37 70.14 30.44 C 69.63 30.90 68.61 31.82 68.10 32.28 C 65.35 34.43 62.79 36.84 60.70 39.65 C 61.28 39.96 62.45 40.57 63.03 40.88 C 58.91 43.72 55.34 47.23 51.72 50.65 C 49.88 51.89 48.01 53.10 46.30 54.52 C 45.50 54.50 43.90 54.46 43.11 54.44 C 46.31 47.68 52.34 43.06 57.65 38.05 Z" />
</g>
<g id="#151318ff">
<path fill="#151318" opacity="1.00" d=" M 154.87 40.12 C 155.82 36.55 155.62 32.77 156.76 29.24 C 158.06 30.97 159.27 32.77 160.15 34.75 C 159.09 34.57 158.03 34.39 156.98 34.22 C 156.58 37.52 160.13 38.82 160.37 41.89 C 161.49 49.12 164.93 56.15 163.54 63.60 C 162.58 69.06 163.99 74.50 164.32 79.95 C 165.13 77.83 166.02 75.75 166.84 73.63 C 166.63 76.94 166.86 80.45 165.38 83.51 C 164.34 85.07 162.89 86.28 161.57 87.58 C 161.43 89.28 161.30 90.98 161.18 92.68 C 159.87 92.08 158.55 91.49 157.23 90.91 C 155.77 91.92 154.30 92.94 152.84 93.96 C 152.22 93.97 150.98 93.98 150.36 93.99 C 152.87 81.65 154.14 68.95 152.85 56.38 C 154.71 47.70 151.45 39.28 150.98 30.68 C 152.43 33.76 153.61 36.96 154.87 40.12 Z" />
</g>
<g id="#2e2c2eff">
<path fill="#2e2c2e" opacity="1.00" d=" M 60.70 39.65 C 62.79 36.84 65.35 34.43 68.10 32.28 C 69.29 33.08 70.65 33.52 72.03 33.89 C 69.22 36.46 66.13 38.68 63.03 40.88 C 62.45 40.57 61.28 39.96 60.70 39.65 Z" />
</g>
<g id="#201e24ff">
<path fill="#201e24" opacity="1.00" d=" M 162.82 32.26 C 163.91 32.70 165.00 33.14 166.10 33.59 C 171.44 41.49 172.29 51.18 174.70 60.16 C 176.11 65.05 176.03 70.18 176.38 75.21 C 179.93 71.53 178.92 66.32 177.45 61.98 C 178.91 61.54 180.38 61.11 181.84 60.68 C 181.73 62.20 181.63 63.72 181.52 65.24 C 182.14 65.51 183.38 66.07 184.00 66.35 C 184.22 68.75 184.11 71.22 184.73 73.58 C 186.03 75.11 188.39 75.90 188.71 78.10 C 189.87 83.68 191.74 89.06 193.74 94.39 C 194.34 96.08 195.54 97.45 196.63 98.84 C 195.71 105.02 192.84 110.70 192.04 116.90 C 192.01 117.04 191.95 117.32 191.93 117.47 C 191.31 120.72 191.19 124.04 190.98 127.34 C 188.43 122.71 188.44 117.28 188.27 112.14 C 187.65 112.34 187.02 112.53 186.40 112.73 C 186.41 112.14 186.43 110.96 186.44 110.36 C 187.16 110.38 187.88 110.39 188.60 110.40 C 188.54 107.59 188.64 104.77 188.89 101.96 C 189.51 94.49 188.26 86.93 185.46 79.98 C 184.49 85.43 184.91 91.63 181.53 96.31 C 181.16 91.09 181.62 85.82 180.73 80.64 C 177.64 85.27 179.66 91.22 177.31 96.14 C 176.86 92.77 176.65 89.38 176.51 86.00 C 175.91 89.80 175.30 93.62 174.20 97.32 C 173.08 92.22 174.87 86.78 172.57 81.88 C 171.82 94.62 169.92 107.42 165.73 119.52 C 165.03 119.09 164.33 118.67 163.64 118.25 C 163.70 120.07 163.76 121.90 163.83 123.73 C 163.50 123.42 162.83 122.82 162.49 122.51 C 161.51 123.75 160.54 124.98 159.56 126.21 C 159.56 126.65 159.56 127.51 159.56 127.95 C 159.56 128.09 159.56 128.37 159.56 128.51 C 157.67 130.83 156.27 133.47 155.24 136.27 C 152.76 132.26 157.50 128.88 158.40 125.14 C 162.75 112.32 168.49 99.68 169.67 86.06 C 169.49 77.68 169.18 69.28 168.43 60.93 C 167.33 65.08 167.15 69.38 166.84 73.63 C 166.02 75.75 165.13 77.83 164.32 79.95 C 163.99 74.50 162.58 69.06 163.54 63.60 C 164.93 56.15 161.49 49.12 160.37 41.89 C 160.13 38.82 156.58 37.52 156.98 34.22 C 158.03 34.39 159.09 34.57 160.15 34.75 C 161.61 38.23 163.12 41.69 164.91 45.02 C 164.61 40.71 163.60 36.50 162.82 32.26 Z" />
</g>
<g id="#242227ff">
<path fill="#242227" opacity="1.00" d=" M 170.75 31.67 C 172.69 32.43 174.40 33.65 175.45 35.49 C 176.82 40.48 181.43 43.62 184.50 47.56 C 188.77 52.93 190.83 59.65 192.94 66.08 C 194.56 72.49 196.86 78.79 197.40 85.42 C 193.17 80.78 192.50 74.35 190.45 68.66 C 188.07 61.28 184.25 54.50 180.28 47.89 C 177.52 44.11 175.20 40.01 172.15 36.46 C 171.60 34.89 171.14 33.29 170.75 31.67 Z" />
</g>
<g id="#17161aff">
<path fill="#17161a" opacity="1.00" d=" M 166.10 33.59 C 166.67 33.83 167.81 34.31 168.37 34.55 C 169.35 36.18 170.37 37.79 171.48 39.33 C 171.65 38.61 171.98 37.18 172.15 36.46 C 175.20 40.01 177.52 44.11 180.28 47.89 C 178.89 46.95 177.45 46.09 176.02 45.23 C 179.01 52.14 184.44 58.39 184.00 66.35 C 183.38 66.07 182.14 65.51 181.52 65.24 C 181.63 63.72 181.73 62.20 181.84 60.68 C 180.38 61.11 178.91 61.54 177.45 61.98 C 178.92 66.32 179.93 71.53 176.38 75.21 C 176.03 70.18 176.11 65.05 174.70 60.16 C 172.29 51.18 171.44 41.49 166.10 33.59 Z" />
</g>
<g id="#4a434bff">
<path fill="#4a434b" opacity="1.00" d=" M 184.50 47.56 C 181.43 43.62 176.82 40.48 175.45 35.49 C 176.91 36.97 178.44 38.39 180.00 39.77 C 185.80 44.54 190.02 50.98 193.40 57.61 C 196.02 62.56 195.89 68.89 200.00 72.99 L 200.00 94.01 L 199.02 95.93 C 198.45 94.62 197.91 93.31 197.37 91.99 C 197.26 94.29 197.04 96.58 196.63 98.84 C 195.05 94.31 197.51 89.95 197.40 85.42 C 196.86 78.79 194.56 72.49 192.94 66.08 C 190.83 59.65 188.77 52.93 184.50 47.56 Z" />
</g>
<g id="#f5e2cfff">
<path fill="#f5e2cf" opacity="1.00" d=" M 102.48 43.44 C 105.66 41.52 108.36 38.68 112.02 37.68 C 109.25 43.96 106.57 50.28 103.50 56.42 C 102.13 59.06 101.01 61.84 100.36 64.76 C 99.98 64.96 99.22 65.37 98.84 65.58 C 94.33 65.93 89.80 65.55 85.32 65.03 C 85.64 64.66 86.29 63.93 86.61 63.56 C 85.76 62.77 84.90 61.98 84.05 61.19 C 85.08 60.87 86.11 60.57 87.15 60.29 C 90.38 60.70 93.61 61.14 96.84 61.63 C 96.65 61.17 96.29 60.25 96.10 59.79 C 92.31 59.16 88.52 58.51 84.76 57.73 C 90.54 52.81 96.00 47.44 102.48 43.44 Z" />
</g>
<g id="#e2cfc0ff">
<path fill="#e2cfc0" opacity="1.00" d=" M 92.37 38.70 C 92.79 38.62 93.63 38.46 94.05 38.39 C 93.61 38.70 92.74 39.33 92.30 39.64 C 92.25 40.68 93.09 42.78 90.99 42.45 C 87.74 47.58 84.66 52.86 82.16 58.40 C 80.82 58.92 79.47 59.43 78.12 59.93 C 78.68 58.26 79.25 56.59 79.99 54.99 C 83.91 49.41 87.72 43.72 92.37 38.70 Z" />
<path fill="#e2cfc0" opacity="1.00" d=" M 103.92 59.53 C 105.66 59.31 107.40 59.00 109.12 58.62 C 108.48 63.15 107.53 67.61 106.59 72.08 C 99.45 68.13 91.04 68.11 83.12 68.59 C 81.98 69.87 80.83 71.13 79.67 72.39 C 78.52 72.89 77.36 73.34 76.19 73.80 C 75.30 70.68 74.09 67.66 73.11 64.56 C 73.24 62.15 74.23 59.62 76.50 58.47 C 76.42 59.46 76.35 60.45 76.28 61.45 C 78.85 59.44 82.35 59.98 85.39 59.94 C 85.83 60.03 86.71 60.20 87.15 60.29 C 86.11 60.57 85.08 60.87 84.05 61.19 C 84.90 61.98 85.76 62.77 86.61 63.56 C 86.29 63.93 85.64 64.66 85.32 65.03 C 89.80 65.55 94.33 65.93 98.84 65.58 C 99.40 65.55 100.52 65.49 101.07 65.46 C 101.28 63.17 102.68 61.36 103.92 59.53 Z" />
</g>
<g id="#110c0fff">
<path fill="#110c0f" opacity="1.00" d=" M 67.07 41.69 C 67.58 41.79 68.60 42.00 69.11 42.11 C 62.26 47.91 54.34 54.03 52.44 63.34 C 52.11 64.40 51.78 65.46 51.45 66.52 C 52.96 66.87 54.47 67.19 55.98 67.58 C 54.29 67.62 52.70 68.17 51.14 68.75 C 52.92 70.57 54.85 72.24 56.87 73.78 C 54.67 74.56 52.29 74.49 49.99 74.62 C 47.81 78.94 42.52 78.87 38.69 80.90 C 38.60 82.02 38.55 83.15 38.54 84.28 C 37.71 84.66 36.86 85.03 36.02 85.38 C 34.07 86.17 32.11 86.90 30.12 87.57 C 31.41 86.71 32.73 85.90 34.07 85.12 C 40.47 79.96 45.43 72.94 47.34 64.87 C 44.00 67.65 40.85 70.65 37.98 73.92 C 35.14 77.08 33.32 80.99 30.58 84.23 C 33.32 74.06 39.94 65.66 44.87 56.53 C 45.34 55.85 45.82 55.18 46.30 54.52 C 48.01 53.10 49.88 51.89 51.72 50.65 C 52.92 51.08 54.12 51.50 55.32 51.93 C 55.30 51.41 55.26 50.38 55.24 49.87 C 59.21 47.17 63.21 44.53 67.07 41.69 Z" />
</g>
<g id="#c0a59cff">
<path fill="#c0a59c" opacity="1.00" d=" M 81.38 41.62 C 81.69 41.53 82.31 41.36 82.62 41.27 C 81.71 43.31 80.81 45.36 80.18 47.51 C 79.56 49.81 79.09 52.15 78.55 54.47 L 77.88 54.18 C 77.75 53.73 77.49 52.81 77.36 52.36 C 73.42 55.38 69.19 58.15 65.91 61.94 C 63.42 64.67 63.54 68.97 60.59 71.36 C 59.87 69.32 58.00 68.11 55.98 67.58 C 54.47 67.19 52.96 66.87 51.45 66.52 C 51.78 65.46 52.11 64.40 52.44 63.34 C 53.07 62.39 53.71 61.46 54.36 60.53 C 54.61 60.73 55.11 61.15 55.36 61.36 C 56.13 61.13 56.89 60.90 57.66 60.67 C 58.66 61.08 59.67 61.50 60.67 61.91 C 60.61 62.69 60.50 64.23 60.44 65.01 C 59.90 65.52 58.82 66.54 58.29 67.05 C 59.60 66.07 60.96 65.12 62.01 63.84 C 67.33 55.54 74.38 48.51 81.38 41.62 Z" />
</g>
<g id="#af9487ff">
<path fill="#af9487" opacity="1.00" d=" M 69.11 42.11 C 69.38 42.16 69.91 42.26 70.17 42.31 C 68.49 45.77 66.66 49.16 64.91 52.58 C 61.51 52.27 59.75 55.79 57.44 57.64 C 58.71 58.67 59.98 59.70 61.25 60.73 C 61.11 61.03 60.82 61.62 60.67 61.91 C 59.67 61.50 58.66 61.08 57.66 60.67 C 56.89 60.90 56.13 61.13 55.36 61.36 C 55.11 61.15 54.61 60.73 54.36 60.53 C 53.71 61.46 53.07 62.39 52.44 63.34 C 54.34 54.03 62.26 47.91 69.11 42.11 Z" />
<path fill="#af9487" opacity="1.00" d=" M 38.91 110.28 C 39.10 109.71 39.30 109.14 39.49 108.57 C 41.37 109.17 43.26 109.74 45.16 110.31 C 49.98 111.64 54.32 114.17 58.77 116.38 C 60.87 117.38 62.71 118.81 64.36 120.44 C 61.03 119.45 57.93 117.83 55.18 115.71 C 51.68 112.90 47.11 112.45 42.87 111.57 C 41.83 112.25 40.79 112.94 39.75 113.62 C 39.54 112.79 39.12 111.12 38.91 110.28 Z" />
</g>
<g id="#0a080dff">
<path fill="#0a080d" opacity="1.00" d=" M 176.02 45.23 C 177.45 46.09 178.89 46.95 180.28 47.89 C 184.25 54.50 188.07 61.28 190.45 68.66 C 192.50 74.35 193.17 80.78 197.40 85.42 C 197.51 89.95 195.05 94.31 196.63 98.84 C 195.54 97.45 194.34 96.08 193.74 94.39 C 191.74 89.06 189.87 83.68 188.71 78.10 C 188.39 75.90 186.03 75.11 184.73 73.58 C 184.11 71.22 184.22 68.75 184.00 66.35 C 184.44 58.39 179.01 52.14 176.02 45.23 Z" />
</g>
<g id="#363439ff">
<path fill="#363439" opacity="1.00" d=" M 148.70 63.79 C 150.25 57.91 149.29 51.61 151.45 45.89 C 151.87 49.39 152.29 52.89 152.85 56.38 C 154.14 68.95 152.87 81.65 150.36 93.99 C 150.98 93.98 152.22 93.97 152.84 93.96 C 153.45 94.32 154.67 95.04 155.28 95.40 C 153.81 95.33 152.33 95.32 150.86 95.27 C 149.92 98.99 149.21 102.77 148.56 106.54 C 148.30 107.63 148.04 108.71 147.76 109.79 C 147.50 107.29 147.15 104.81 146.83 102.32 C 146.07 101.58 145.31 100.85 144.55 100.11 C 145.52 98.40 146.52 96.63 146.56 94.61 C 147.09 88.59 146.59 82.53 146.88 76.50 C 147.18 71.01 145.86 65.58 146.01 60.08 C 146.91 61.31 147.80 62.55 148.70 63.79 Z" />
</g>
<g id="#0c0b0eff">
<path fill="#0c0b0e" opacity="1.00" d=" M 139.40 58.34 C 139.95 54.74 139.35 50.76 141.56 47.62 C 142.33 52.12 142.80 56.69 143.97 61.12 C 145.32 66.48 145.33 72.04 146.17 77.49 C 145.69 78.12 145.21 78.76 144.73 79.39 C 144.21 79.06 143.69 78.73 143.17 78.40 C 142.10 81.29 141.15 84.21 140.12 87.12 C 138.51 90.87 136.96 94.66 135.14 98.32 C 131.19 105.27 124.96 110.56 120.54 117.15 C 121.30 117.18 122.81 117.25 123.56 117.28 C 122.11 121.43 121.63 125.84 121.48 130.22 C 120.89 132.83 120.61 135.49 120.43 138.16 C 120.34 131.99 119.37 125.80 120.20 119.65 C 119.38 119.67 117.74 119.69 116.92 119.70 C 117.31 119.36 118.09 118.68 118.48 118.34 C 118.69 118.14 119.11 117.74 119.32 117.54 C 119.38 115.35 119.31 113.15 119.28 110.96 C 120.16 111.58 121.04 112.21 121.91 112.84 C 126.94 107.94 126.80 100.46 128.58 94.12 C 128.80 92.01 130.41 88.80 127.75 87.65 C 127.13 93.93 124.01 99.61 123.31 105.88 C 122.91 105.73 122.09 105.42 121.68 105.27 C 122.27 101.88 122.59 98.39 121.45 95.07 C 121.14 93.42 120.85 91.76 120.63 90.10 C 122.02 87.73 123.97 85.78 125.92 83.86 C 132.66 76.86 138.15 68.15 139.40 58.34 Z" />
</g>
<g id="#503945ff">
<path fill="#503945" opacity="1.00" d=" M 190.88 47.67 C 195.23 49.13 197.18 53.55 200.00 56.79 L 200.00 67.07 C 198.01 64.53 197.28 61.39 196.48 58.34 C 195.45 54.41 193.28 50.91 190.88 47.67 Z" />
</g>
<g id="#b9a4a4ff">
<path fill="#b9a4a4" opacity="1.00" d=" M 103.92 59.53 C 105.90 55.92 107.90 52.30 110.29 48.92 L 110.40 50.42 C 110.32 50.82 110.16 51.64 110.08 52.05 C 109.65 54.22 109.41 56.43 109.12 58.62 C 107.40 59.00 105.66 59.31 103.92 59.53 Z" />
</g>
<g id="#c5a39aff">
<path fill="#c5a39a" opacity="1.00" d=" M 57.44 57.64 C 59.75 55.79 61.51 52.27 64.91 52.58 C 63.68 55.30 62.57 58.06 61.25 60.73 C 59.98 59.70 58.71 58.67 57.44 57.64 Z" />
</g>
<g id="#fcf2d7ff">
<path fill="#fcf2d7" opacity="1.00" d=" M 65.91 61.94 C 69.19 58.15 73.42 55.38 77.36 52.36 C 77.49 52.81 77.75 53.73 77.88 54.18 C 77.50 55.63 77.01 57.06 76.50 58.47 C 74.23 59.62 73.24 62.15 73.11 64.56 C 74.09 67.66 75.30 70.68 76.19 73.80 C 78.00 74.84 79.89 75.71 81.78 76.58 C 82.58 77.56 84.98 78.16 85.12 76.35 C 86.32 76.42 87.53 76.46 88.74 76.48 C 89.56 77.08 90.46 77.40 91.45 77.42 C 92.34 77.42 94.14 77.40 95.03 77.40 C 98.01 77.36 100.99 77.36 103.97 77.24 C 104.35 77.31 105.12 77.44 105.51 77.50 C 104.97 80.39 104.51 83.31 104.65 86.26 L 105.12 86.60 C 105.59 86.91 106.52 87.53 106.98 87.84 C 105.79 91.68 104.48 95.50 102.65 99.09 C 99.70 101.47 96.87 104.01 94.30 106.81 C 98.70 104.60 103.08 102.24 106.74 98.90 C 106.17 104.26 103.80 109.30 100.92 113.80 C 104.77 110.69 107.71 106.71 110.50 102.67 C 110.63 103.24 110.89 104.37 111.02 104.94 C 111.34 110.38 111.70 115.87 113.45 121.08 C 113.45 121.42 113.44 122.10 113.44 122.44 C 111.94 123.39 110.31 124.29 109.58 126.01 C 111.57 126.19 115.10 124.22 115.77 127.15 C 116.76 130.28 117.38 133.54 118.84 136.51 C 119.12 138.01 119.41 139.51 119.71 141.01 C 118.66 143.13 116.53 144.29 114.44 145.16 C 106.64 148.32 98.23 149.50 89.90 150.30 C 82.04 151.48 74.08 152.04 66.13 151.51 C 64.71 151.68 63.29 151.92 61.89 152.21 C 59.31 152.91 56.79 151.95 54.31 151.30 C 53.05 150.95 51.79 150.62 50.51 150.36 C 44.93 149.41 39.65 147.31 34.34 145.43 C 32.70 144.78 31.08 144.07 29.41 143.46 C 29.35 142.18 29.27 140.91 29.19 139.63 C 30.70 136.13 31.82 132.47 32.56 128.73 C 33.15 128.60 34.32 128.33 34.91 128.19 C 34.78 129.54 34.66 130.90 34.54 132.25 C 35.72 131.21 37.14 130.34 37.94 128.95 C 38.39 126.39 38.26 123.79 38.29 121.21 C 38.67 121.92 39.05 122.63 39.43 123.35 C 42.50 123.94 45.71 124.34 48.72 123.18 C 45.87 118.75 39.91 119.82 35.52 118.14 C 36.10 115.30 37.33 112.69 38.91 110.28 C 39.12 111.12 39.54 112.79 39.75 113.62 C 40.79 112.94 41.83 112.25 42.87 111.57 C 47.11 112.45 51.68 112.90 55.18 115.71 C 57.93 117.83 61.03 119.45 64.36 120.44 C 62.71 118.81 60.87 117.38 58.77 116.38 C 54.32 114.17 49.98 111.64 45.16 110.31 C 45.28 109.72 45.52 108.53 45.64 107.93 C 43.01 105.74 39.85 106.45 37.03 107.80 C 36.90 106.47 36.79 105.14 36.70 103.81 C 37.05 101.84 37.53 99.90 37.96 97.95 C 38.34 99.37 38.79 100.78 39.23 102.19 C 40.22 101.02 41.21 99.85 42.20 98.68 C 42.76 98.85 43.33 99.03 43.89 99.20 C 45.94 97.30 50.16 96.29 50.23 93.17 C 47.38 89.11 43.74 85.06 38.54 84.28 C 38.55 83.15 38.60 82.02 38.69 80.90 C 42.52 78.87 47.81 78.94 49.99 74.62 C 52.29 74.49 54.67 74.56 56.87 73.78 C 58.14 73.01 59.38 72.21 60.59 71.36 C 63.54 68.97 63.42 64.67 65.91 61.94 Z" />
</g>
<g id="#200f0cff">
<path fill="#200f0c" opacity="1.00" d=" M 109.12 58.62 C 109.41 56.43 109.65 54.22 110.08 52.05 C 110.84 53.45 111.94 54.73 112.37 56.29 C 112.26 58.64 111.67 61.03 112.52 63.34 C 112.47 66.87 110.62 69.99 109.27 73.15 C 109.73 73.69 110.65 74.76 111.11 75.30 C 110.37 75.61 108.89 76.25 108.15 76.57 C 106.71 79.76 105.14 83.00 105.12 86.60 L 104.65 86.26 C 104.51 83.31 104.97 80.39 105.51 77.50 C 105.12 77.44 104.35 77.31 103.97 77.24 C 104.12 76.84 104.43 76.04 104.58 75.64 L 105.53 75.36 C 106.25 73.58 103.64 73.05 102.65 74.10 C 101.15 73.68 99.65 73.28 98.14 72.88 C 98.68 73.62 99.23 74.35 99.77 75.09 C 99.14 75.07 97.90 75.03 97.27 75.01 C 97.05 74.32 96.61 72.94 96.39 72.25 C 95.88 72.54 94.88 73.13 94.37 73.42 C 91.53 70.34 86.87 70.42 83.66 72.88 L 83.03 73.00 C 81.99 73.15 79.91 73.44 78.87 73.59 L 79.67 72.39 C 80.83 71.13 81.98 69.87 83.12 68.59 C 91.04 68.11 99.45 68.13 106.59 72.08 C 107.53 67.61 108.48 63.15 109.12 58.62 Z" />
</g>
<g id="#b09d96ff">
<path fill="#b09d96" opacity="1.00" d=" M 112.52 63.34 C 113.26 61.83 113.99 60.31 114.74 58.81 C 112.50 69.08 111.80 79.64 109.29 89.85 C 108.87 91.18 108.43 92.50 107.96 93.81 C 106.57 95.91 104.59 97.51 102.65 99.09 C 104.48 95.50 105.79 91.68 106.98 87.84 C 106.52 87.53 105.59 86.91 105.12 86.60 C 105.14 83.00 106.71 79.76 108.15 76.57 C 108.89 76.25 110.37 75.61 111.11 75.30 C 110.65 74.76 109.73 73.69 109.27 73.15 C 110.62 69.99 112.47 66.87 112.52 63.34 Z" />
</g>
<g id="#0a070bff">
<path fill="#0a070b" opacity="1.00" d=" M 168.43 60.93 C 169.18 69.28 169.49 77.68 169.67 86.06 C 168.49 99.68 162.75 112.32 158.40 125.14 C 157.50 128.88 152.76 132.26 155.24 136.27 C 156.27 133.47 157.67 130.83 159.56 128.51 C 162.06 130.77 164.95 132.54 167.93 134.11 C 165.42 134.69 162.98 135.58 160.81 136.99 C 159.76 137.61 158.72 138.26 157.69 138.91 C 157.80 142.37 153.82 141.07 151.61 141.76 C 147.29 142.29 142.98 142.91 138.76 143.98 C 143.39 145.25 148.19 146.23 152.19 149.07 C 151.27 149.25 149.45 149.61 148.54 149.79 C 148.53 150.97 148.53 152.15 148.54 153.33 C 146.56 155.18 144.65 157.28 142.07 158.29 C 138.72 158.83 135.38 158.01 132.05 157.74 C 132.80 158.31 134.32 159.43 135.08 159.99 C 133.04 160.58 131.01 161.21 128.94 161.72 C 128.54 161.68 127.73 161.60 127.33 161.57 C 127.33 161.99 127.34 162.84 127.35 163.26 C 124.61 163.90 121.94 164.79 119.34 165.85 C 120.67 164.30 121.98 162.74 123.26 161.17 C 119.08 163.43 115.43 166.49 111.88 169.62 C 115.22 164.89 119.28 160.81 123.54 156.91 C 124.87 156.88 126.54 157.83 127.63 156.62 C 131.42 153.37 135.08 149.95 138.65 146.44 C 137.50 146.49 136.28 146.45 135.36 147.26 C 132.10 149.57 128.77 151.76 125.55 154.12 C 121.19 156.31 116.42 157.59 111.62 158.41 C 110.90 158.47 109.46 158.58 108.74 158.64 C 113.53 156.85 118.08 154.37 122.11 151.24 C 126.74 146.98 130.10 141.60 133.47 136.35 C 133.56 136.25 133.74 136.05 133.83 135.95 C 135.65 135.54 137.55 135.25 139.12 134.16 C 144.22 130.92 150.73 129.30 154.01 123.79 C 158.72 117.37 157.74 109.04 157.66 101.56 C 157.51 99.58 156.93 97.67 156.45 95.75 C 156.16 95.66 155.58 95.49 155.28 95.40 C 154.67 95.04 153.45 94.32 152.84 93.96 C 154.30 92.94 155.77 91.92 157.23 90.91 C 158.55 91.49 159.87 92.08 161.18 92.68 C 161.30 90.98 161.43 89.28 161.57 87.58 C 162.89 86.28 164.34 85.07 165.38 83.51 C 166.86 80.45 166.63 76.94 166.84 73.63 C 167.15 69.38 167.33 65.08 168.43 60.93 Z" />
</g>
<g id="#250600ff">
<path fill="#250600" opacity="1.00" d=" M 51.14 68.75 C 52.70 68.17 54.29 67.62 55.98 67.58 C 58.00 68.11 59.87 69.32 60.59 71.36 C 59.38 72.21 58.14 73.01 56.87 73.78 C 54.85 72.24 52.92 70.57 51.14 68.75 Z" />
</g>
<g id="#714b4cff">
<path fill="#714b4c" opacity="1.00" d=" M 83.66 72.88 C 86.87 70.42 91.53 70.34 94.37 73.42 C 94.78 73.79 95.59 74.53 95.99 74.90 C 95.75 75.53 95.27 76.77 95.03 77.40 C 94.14 77.40 92.34 77.42 91.45 77.42 C 91.75 76.12 91.72 74.83 91.37 73.53 C 91.32 73.23 91.22 72.62 91.16 72.32 C 88.66 72.44 86.16 72.65 83.66 72.88 Z" />
</g>
<g id="#f1ebe4ff">
<path fill="#f1ebe4" opacity="1.00" d=" M 76.19 73.80 C 77.36 73.34 78.52 72.89 79.67 72.39 L 78.87 73.59 C 79.91 73.44 81.99 73.15 83.03 73.00 L 83.66 72.88 C 86.16 72.65 88.66 72.44 91.16 72.32 C 91.22 72.62 91.32 73.23 91.37 73.53 C 90.20 74.25 89.32 75.23 88.74 76.48 C 87.53 76.46 86.32 76.42 85.12 76.35 C 84.28 76.41 82.61 76.52 81.78 76.58 C 79.89 75.71 78.00 74.84 76.19 73.80 Z" />
</g>
<g id="#41201cff">
<path fill="#41201c" opacity="1.00" d=" M 94.37 73.42 C 94.88 73.13 95.88 72.54 96.39 72.25 C 96.61 72.94 97.05 74.32 97.27 75.01 C 97.90 75.03 99.14 75.07 99.77 75.09 C 99.23 74.35 98.68 73.62 98.14 72.88 C 99.65 73.28 101.15 73.68 102.65 74.10 C 103.13 74.49 104.10 75.26 104.58 75.64 C 104.43 76.04 104.12 76.84 103.97 77.24 C 100.99 77.36 98.01 77.36 95.03 77.40 C 95.27 76.77 95.75 75.53 95.99 74.90 C 95.59 74.53 94.78 73.79 94.37 73.42 Z" />
</g>
<g id="#b6b7b3ff">
<path fill="#b6b7b3" opacity="1.00" d=" M 102.65 74.10 C 103.64 73.05 106.25 73.58 105.53 75.36 L 104.58 75.64 C 104.10 75.26 103.13 74.49 102.65 74.10 Z" />
<path fill="#b6b7b3" opacity="1.00" d=" M 196.10 156.09 C 197.40 156.33 198.70 156.57 200.00 156.86 L 200.00 171.25 C 198.00 171.39 196.00 171.55 194.01 171.70 C 194.07 171.18 194.20 170.13 194.26 169.61 C 195.78 169.02 197.33 168.48 198.79 167.75 C 197.47 163.96 195.92 160.19 196.10 156.09 Z" />
</g>
<g id="#4b2926ff">
<path fill="#4b2926" opacity="1.00" d=" M 88.74 76.48 C 89.32 75.23 90.20 74.25 91.37 73.53 C 91.72 74.83 91.75 76.12 91.45 77.42 C 90.46 77.40 89.56 77.08 88.74 76.48 Z" />
</g>
<g id="#938d80ff">
<path fill="#938d80" opacity="1.00" d=" M 81.78 76.58 C 82.61 76.52 84.28 76.41 85.12 76.35 C 84.98 78.16 82.58 77.56 81.78 76.58 Z" />
</g>
<g id="#1a1519ff">
<path fill="#1a1519" opacity="1.00" d=" M 146.17 77.49 L 146.88 76.50 C 146.59 82.53 147.09 88.59 146.56 94.61 C 146.52 96.63 145.52 98.40 144.55 100.11 C 145.31 100.85 146.07 101.58 146.83 102.32 C 147.15 104.81 147.50 107.29 147.76 109.79 C 147.06 114.33 144.73 118.46 144.27 123.04 C 144.08 123.27 143.68 123.74 143.48 123.97 C 144.08 120.92 144.43 117.84 144.51 114.74 C 144.75 109.85 144.65 104.95 144.43 100.06 C 144.10 101.07 143.79 102.09 143.49 103.11 C 140.63 108.02 137.95 113.03 135.56 118.18 C 133.71 121.67 131.89 125.23 131.08 129.13 C 129.27 126.79 129.47 123.76 129.52 120.99 C 129.97 117.36 130.92 113.83 131.82 110.30 C 132.61 106.67 135.69 104.18 136.69 100.62 C 138.10 96.20 142.59 92.01 140.12 87.12 C 141.15 84.21 142.10 81.29 143.17 78.40 C 143.69 78.73 144.21 79.06 144.73 79.39 C 145.21 78.76 145.69 78.12 146.17 77.49 Z" />
</g>
<g id="#0c0a0fff">
<path fill="#0c0a0f" opacity="1.00" d=" M 185.46 79.98 C 188.26 86.93 189.51 94.49 188.89 101.96 C 188.64 104.77 188.54 107.59 188.60 110.40 C 187.88 110.39 187.16 110.38 186.44 110.36 C 186.43 110.96 186.41 112.14 186.40 112.73 C 186.13 113.98 185.82 115.23 185.50 116.47 C 184.14 115.00 182.92 113.42 181.72 111.82 L 181.63 112.15 C 180.28 115.36 179.60 119.25 181.71 122.30 C 182.21 123.24 182.76 124.15 183.36 125.03 C 184.50 126.39 185.67 127.71 186.88 129.01 C 183.88 128.33 180.94 127.39 178.16 126.07 C 178.38 127.02 178.81 128.92 179.03 129.87 C 176.05 129.40 173.00 129.14 170.10 130.18 C 167.12 131.41 164.24 129.54 161.25 129.41 C 160.83 129.05 159.99 128.31 159.56 127.95 C 159.56 127.51 159.56 126.65 159.56 126.21 C 160.54 124.98 161.51 123.75 162.49 122.51 C 162.83 122.82 163.50 123.42 163.83 123.73 C 163.76 121.90 163.70 120.07 163.64 118.25 C 164.33 118.67 165.03 119.09 165.73 119.52 C 169.92 107.42 171.82 94.62 172.57 81.88 C 174.87 86.78 173.08 92.22 174.20 97.32 C 175.30 93.62 175.91 89.80 176.51 86.00 C 176.65 89.38 176.86 92.77 177.31 96.14 C 179.66 91.22 177.64 85.27 180.73 80.64 C 181.62 85.82 181.16 91.09 181.53 96.31 C 184.91 91.63 184.49 85.43 185.46 79.98 Z" />
</g>
<g id="#312e33ff">
<path fill="#312e33" opacity="1.00" d=" M 116.81 84.73 C 117.30 84.63 118.26 84.44 118.74 84.34 C 118.62 85.44 118.50 86.54 118.38 87.65 C 119.12 88.46 119.87 89.28 120.63 90.10 C 120.85 91.76 121.14 93.42 121.45 95.07 L 119.68 96.32 C 119.65 94.54 119.57 92.76 119.47 90.98 C 119.28 91.54 119.09 92.10 118.91 92.66 C 115.18 91.37 112.32 95.41 108.99 96.54 C 108.73 95.85 108.22 94.49 107.96 93.81 C 108.43 92.50 108.87 91.18 109.29 89.85 C 109.51 90.38 109.95 91.44 110.18 91.97 C 112.58 89.74 114.93 87.43 116.81 84.73 Z" />
</g>
<g id="#e8d6c3ff">
<path fill="#e8d6c3" opacity="1.00" d=" M 36.02 85.38 C 36.86 85.03 37.71 84.66 38.54 84.28 C 43.74 85.06 47.38 89.11 50.23 93.17 C 50.16 96.29 45.94 97.30 43.89 99.20 C 43.33 99.03 42.76 98.85 42.20 98.68 C 41.21 99.85 40.22 101.02 39.23 102.19 C 38.79 100.78 38.34 99.37 37.96 97.95 C 38.09 97.26 38.36 95.87 38.50 95.17 L 37.19 96.00 C 37.70 94.99 38.17 93.96 38.60 92.92 C 38.94 93.74 40.57 95.60 41.12 93.93 C 41.24 92.79 41.13 91.65 40.81 90.54 C 40.08 91.03 39.38 91.56 38.73 92.14 C 38.70 90.27 38.56 88.41 38.42 86.55 C 37.82 86.26 36.62 85.67 36.02 85.38 Z" />
</g>
<g id="#211a21ff">
<path fill="#211a21" opacity="1.00" d=" M 127.75 87.65 C 130.41 88.80 128.80 92.01 128.58 94.12 C 126.80 100.46 126.94 107.94 121.91 112.84 C 121.04 112.21 120.16 111.58 119.28 110.96 C 119.20 106.07 119.44 101.19 119.68 96.32 L 121.45 95.07 C 122.59 98.39 122.27 101.88 121.68 105.27 C 122.09 105.42 122.91 105.73 123.31 105.88 C 124.01 99.61 127.13 93.93 127.75 87.65 Z" />
</g>
<g id="#323134ff">
<path fill="#323134" opacity="1.00" d=" M 135.14 98.32 C 136.96 94.66 138.51 90.87 140.12 87.12 C 142.59 92.01 138.10 96.20 136.69 100.62 C 135.69 104.18 132.61 106.67 131.82 110.30 C 128.82 112.32 126.19 114.81 123.56 117.28 C 122.81 117.25 121.30 117.18 120.54 117.15 C 124.96 110.56 131.19 105.27 135.14 98.32 Z" />
</g>
<g id="#bdafa6ff">
<path fill="#bdafa6" opacity="1.00" d=" M 38.73 92.14 C 39.38 91.56 40.08 91.03 40.81 90.54 C 41.13 91.65 41.24 92.79 41.12 93.93 C 40.57 95.60 38.94 93.74 38.60 92.92 L 38.73 92.14 Z" />
</g>
<g id="#b19c9bff">
<path fill="#b19c9b" opacity="1.00" d=" M 118.91 92.66 C 119.09 92.10 119.28 91.54 119.47 90.98 C 119.57 92.76 119.65 94.54 119.68 96.32 C 119.44 101.19 119.20 106.07 119.28 110.96 C 119.31 113.15 119.38 115.35 119.32 117.54 C 119.11 117.74 118.69 118.14 118.48 118.34 C 117.26 113.39 118.66 107.93 116.23 103.29 C 117.05 99.73 117.85 96.16 118.91 92.66 Z" />
</g>
<g id="#150e11ff">
<path fill="#150e11" opacity="1.00" d=" M 108.99 96.54 C 112.32 95.41 115.18 91.37 118.91 92.66 C 117.85 96.16 117.05 99.73 116.23 103.29 C 115.78 105.11 115.36 106.94 115.00 108.79 C 114.50 111.31 114.02 113.83 113.52 116.35 C 112.52 112.58 111.90 108.73 111.02 104.94 C 110.89 104.37 110.63 103.24 110.50 102.67 C 107.71 106.71 104.77 110.69 100.92 113.80 C 103.80 109.30 106.17 104.26 106.74 98.90 C 103.08 102.24 98.70 104.60 94.30 106.81 C 96.87 104.01 99.70 101.47 102.65 99.09 C 104.59 97.51 106.57 95.91 107.96 93.81 C 108.22 94.49 108.73 95.85 108.99 96.54 Z" />
</g>
<g id="#bbb8bdff">
<path fill="#bbb8bd" opacity="1.00" d=" M 197.37 91.99 C 197.91 93.31 198.45 94.62 199.02 95.93 L 200.00 94.01 L 200.00 113.77 C 197.78 115.73 194.85 116.32 192.04 116.90 C 192.84 110.70 195.71 105.02 196.63 98.84 C 197.04 96.58 197.26 94.29 197.37 91.99 Z" />
</g>
<g id="#e8d6c0ff">
<path fill="#e8d6c0" opacity="1.00" d=" M 150.86 95.27 C 152.33 95.32 153.81 95.33 155.28 95.40 C 155.58 95.49 156.16 95.66 156.45 95.75 C 156.93 97.67 157.51 99.58 157.66 101.56 C 156.36 106.58 151.01 108.63 149.13 113.24 C 150.33 113.36 151.54 113.48 152.74 113.60 C 153.06 114.87 153.38 116.15 153.70 117.42 C 152.56 117.99 151.24 118.33 150.28 119.19 C 149.57 121.32 149.62 123.64 148.79 125.73 C 147.75 126.84 146.03 126.73 144.69 127.20 C 144.53 125.82 144.39 124.43 144.27 123.04 C 144.73 118.46 147.06 114.33 147.76 109.79 C 148.04 108.71 148.30 107.63 148.56 106.54 C 150.80 105.10 152.27 102.88 153.35 100.49 C 153.98 100.92 154.60 101.35 155.23 101.79 C 154.79 99.01 153.26 96.74 150.86 95.27 Z" />
</g>
<g id="#813424ff">
<path fill="#813424" opacity="1.00" d=" M 23.72 104.77 C 28.19 101.81 32.77 99.02 37.19 96.00 L 38.50 95.17 C 38.36 95.87 38.09 97.26 37.96 97.95 C 37.53 99.90 37.05 101.84 36.70 103.81 C 35.25 112.11 34.88 120.58 32.56 128.73 C 31.82 132.47 30.70 136.13 29.19 139.63 C 27.66 134.37 29.58 128.85 30.92 123.75 C 33.57 117.99 33.70 111.59 34.63 105.43 C 34.91 103.63 34.73 101.81 34.51 100.02 C 30.35 103.11 25.44 105.20 21.79 108.95 C 19.40 111.29 16.17 112.48 13.62 114.61 C 9.36 117.98 4.68 120.73 0.00 123.45 L 0.00 121.16 C 8.29 116.31 16.05 110.55 23.72 104.77 Z" />
</g>
<g id="#c5aaa2ff">
<path fill="#c5aaa2" opacity="1.00" d=" M 148.56 106.54 C 149.21 102.77 149.92 98.99 150.86 95.27 C 153.26 96.74 154.79 99.01 155.23 101.79 C 154.60 101.35 153.98 100.92 153.35 100.49 C 152.27 102.88 150.80 105.10 148.56 106.54 Z" />
</g>
<g id="#b12f2aff">
<path fill="#b12f2a" opacity="1.00" d=" M 21.79 108.95 C 25.44 105.20 30.35 103.11 34.51 100.02 C 34.73 101.81 34.91 103.63 34.63 105.43 C 33.70 111.59 33.57 117.99 30.92 123.75 C 29.58 128.85 27.66 134.37 29.19 139.63 C 29.27 140.91 29.35 142.18 29.41 143.46 C 27.59 142.84 25.76 142.24 23.93 141.63 C 23.37 142.90 22.82 144.16 22.26 145.43 C 17.11 147.92 11.04 148.15 6.19 151.23 C 4.38 154.13 5.81 158.00 4.75 161.25 C 6.16 162.05 7.58 162.83 9.00 163.62 C 6.88 164.78 4.79 166.00 2.74 167.27 C 3.47 169.20 3.77 171.25 3.63 173.31 C 2.40 174.22 1.17 175.14 0.00 176.14 L 0.00 123.45 C 4.68 120.73 9.36 117.98 13.62 114.61 C 16.17 112.48 19.40 111.29 21.79 108.95 Z" />
</g>
<g id="#faefdbff">
<path fill="#faefdb" opacity="1.00" d=" M 143.49 103.11 C 143.79 102.09 144.10 101.07 144.43 100.06 C 144.65 104.95 144.75 109.85 144.51 114.74 C 142.81 116.90 140.78 118.75 138.71 120.54 C 138.50 123.61 138.16 126.68 137.40 129.67 C 139.72 128.56 142.16 127.70 144.69 127.20 C 146.03 126.73 147.75 126.84 148.79 125.73 C 149.62 123.64 149.57 121.32 150.28 119.19 C 151.24 118.33 152.56 117.99 153.70 117.42 C 153.38 116.15 153.06 114.87 152.74 113.60 C 151.54 113.48 150.33 113.36 149.13 113.24 C 151.01 108.63 156.36 106.58 157.66 101.56 C 157.74 109.04 158.72 117.37 154.01 123.79 C 150.73 129.30 144.22 130.92 139.12 134.16 C 137.55 135.25 135.65 135.54 133.83 135.95 C 133.74 136.05 133.56 136.25 133.47 136.35 C 132.71 136.26 131.17 136.07 130.41 135.97 C 130.66 133.69 130.84 131.41 131.08 129.13 C 131.89 125.23 133.71 121.67 135.56 118.18 C 138.06 116.42 140.54 114.63 143.09 112.94 C 143.77 109.70 143.84 106.39 143.49 103.11 Z" />
</g>
<g id="#e9ddc2ff">
<path fill="#e9ddc2" opacity="1.00" d=" M 32.56 128.73 C 34.88 120.58 35.25 112.11 36.70 103.81 C 36.79 105.14 36.90 106.47 37.03 107.80 C 39.85 106.45 43.01 105.74 45.64 107.93 C 45.52 108.53 45.28 109.72 45.16 110.31 C 43.26 109.74 41.37 109.17 39.49 108.57 C 39.30 109.14 39.10 109.71 38.91 110.28 C 37.33 112.69 36.10 115.30 35.52 118.14 C 39.91 119.82 45.87 118.75 48.72 123.18 C 45.71 124.34 42.50 123.94 39.43 123.35 C 39.05 122.63 38.67 121.92 38.29 121.21 C 38.26 123.79 38.39 126.39 37.94 128.95 C 37.14 130.34 35.72 131.21 34.54 132.25 C 34.66 130.90 34.78 129.54 34.91 128.19 C 34.32 128.33 33.15 128.60 32.56 128.73 Z" />
</g>
<g id="#c5aaa0ff">
<path fill="#c5aaa0" opacity="1.00" d=" M 115.00 108.79 C 115.36 106.94 115.78 105.11 116.23 103.29 C 118.66 107.93 117.26 113.39 118.48 118.34 C 118.09 118.68 117.31 119.36 116.92 119.70 C 116.29 120.22 115.02 121.27 114.39 121.79 C 114.31 117.45 114.31 113.08 115.00 108.79 Z" />
</g>
<g id="#c9aea4ff">
<path fill="#c9aea4" opacity="1.00" d=" M 135.56 118.18 C 137.95 113.03 140.63 108.02 143.49 103.11 C 143.84 106.39 143.77 109.70 143.09 112.94 C 140.54 114.63 138.06 116.42 135.56 118.18 Z" />
</g>
<g id="#50473bff">
<path fill="#50473b" opacity="1.00" d=" M 111.02 104.94 C 111.90 108.73 112.52 112.58 113.52 116.35 C 114.02 113.83 114.50 111.31 115.00 108.79 C 114.31 113.08 114.31 117.45 114.39 121.79 C 115.02 121.27 116.29 120.22 116.92 119.70 C 117.74 119.69 119.38 119.67 120.20 119.65 C 119.37 125.80 120.34 131.99 120.43 138.16 C 120.61 135.49 120.89 132.83 121.48 130.22 L 121.71 129.52 C 121.53 133.59 121.73 137.67 121.48 141.73 C 121.42 142.33 121.30 143.52 121.24 144.11 C 120.71 143.09 120.18 142.06 119.71 141.01 C 119.41 139.51 119.12 138.01 118.84 136.51 C 119.15 131.23 118.67 125.97 118.58 120.70 C 116.84 121.84 115.12 123.01 113.40 124.17 L 113.44 122.44 C 113.44 122.10 113.45 121.42 113.45 121.08 C 111.70 115.87 111.34 110.38 111.02 104.94 Z" />
</g>
<g id="#c2a6a3ff">
<path fill="#c2a6a3" opacity="1.00" d=" M 123.56 117.28 C 126.19 114.81 128.82 112.32 131.82 110.30 C 130.92 113.83 129.97 117.36 129.52 120.99 C 129.06 121.38 128.14 122.18 127.68 122.58 C 127.18 121.34 126.66 120.13 126.11 118.92 C 122.10 121.10 123.32 125.94 121.71 129.52 L 121.48 130.22 C 121.63 125.84 122.11 121.43 123.56 117.28 Z" />
</g>
<g id="#e7e7e7ff">
<path fill="#e7e7e7" opacity="1.00" d=" M 181.72 111.82 C 182.92 113.42 184.14 115.00 185.50 116.47 C 186.36 117.40 187.26 118.31 188.09 119.27 C 187.59 120.95 187.10 122.63 186.61 124.32 C 185.53 124.56 184.44 124.79 183.36 125.03 C 182.76 124.15 182.21 123.24 181.71 122.30 C 181.57 120.15 181.50 117.99 181.40 115.84 C 182.26 116.63 183.99 118.20 184.86 118.98 C 183.92 116.64 182.83 114.37 181.63 112.15 L 181.72 111.82 Z" />
</g>
<g id="#7e7e7eff">
<path fill="#7e7e7e" opacity="1.00" d=" M 186.40 112.73 C 187.02 112.53 187.65 112.34 188.27 112.14 C 188.44 117.28 188.43 122.71 190.98 127.34 C 190.75 128.74 190.34 130.10 189.93 131.45 C 188.77 127.48 188.69 123.33 188.09 119.27 C 187.26 118.31 186.36 117.40 185.50 116.47 C 185.82 115.23 186.13 113.98 186.40 112.73 Z" />
</g>
<g id="#5b5b5bff">
<path fill="#5b5b5b" opacity="1.00" d=" M 181.63 112.15 C 182.83 114.37 183.92 116.64 184.86 118.98 C 183.99 118.20 182.26 116.63 181.40 115.84 C 181.50 117.99 181.57 120.15 181.71 122.30 C 179.60 119.25 180.28 115.36 181.63 112.15 Z" />
</g>
<g id="#c2ccceff">
<path fill="#c2ccce" opacity="1.00" d=" M 192.04 116.90 C 194.85 116.32 197.78 115.73 200.00 113.77 L 200.00 128.10 C 197.75 129.36 194.95 130.34 193.01 128.00 C 191.77 125.08 193.02 121.95 193.17 118.96 C 192.86 118.59 192.24 117.84 191.93 117.47 C 191.95 117.32 192.01 117.04 192.04 116.90 Z" />
</g>
<g id="#c3a798ff">
<path fill="#c3a798" opacity="1.00" d=" M 138.71 120.54 C 140.78 118.75 142.81 116.90 144.51 114.74 C 144.43 117.84 144.08 120.92 143.48 123.97 C 143.68 123.74 144.08 123.27 144.27 123.04 C 144.39 124.43 144.53 125.82 144.69 127.20 C 142.16 127.70 139.72 128.56 137.40 129.67 C 138.16 126.68 138.50 123.61 138.71 120.54 Z" />
</g>
<g id="#f5f5f0ff">
<path fill="#f5f5f0" opacity="1.00" d=" M 190.98 127.34 C 191.19 124.04 191.31 120.72 191.93 117.47 C 192.24 117.84 192.86 118.59 193.17 118.96 C 193.02 121.95 191.77 125.08 193.01 128.00 C 194.95 130.34 197.75 129.36 200.00 128.10 L 200.00 147.28 C 199.22 147.36 197.67 147.51 196.89 147.58 C 197.78 149.29 198.86 150.90 200.00 152.46 L 200.00 153.32 C 199.54 153.50 198.61 153.84 198.15 154.02 C 197.25 153.41 196.37 152.80 195.48 152.20 C 194.17 156.03 192.26 159.61 190.67 163.32 C 186.70 163.03 182.74 163.50 178.77 163.61 C 178.49 156.93 186.47 154.81 188.18 148.84 C 186.96 148.45 185.72 147.94 184.43 148.31 C 180.96 150.77 177.05 152.47 172.97 153.62 C 172.43 152.06 171.89 150.50 171.35 148.94 C 169.49 149.73 167.31 150.22 166.09 151.97 C 163.99 154.95 163.27 158.60 161.92 161.93 C 161.73 159.65 161.85 157.36 162.09 155.10 C 159.34 156.54 157.35 159.02 156.43 161.97 C 154.10 162.54 150.93 162.43 149.77 165.02 C 149.25 166.85 150.07 168.67 150.48 170.43 C 151.19 169.81 151.91 169.18 152.62 168.56 C 153.20 169.44 153.77 170.34 154.38 171.22 C 155.24 171.28 156.97 171.41 157.83 171.47 C 156.99 172.06 156.14 172.64 155.30 173.23 C 155.61 177.10 155.90 181.03 154.83 184.82 C 154.41 186.72 154.06 188.64 153.73 190.56 C 153.24 190.23 152.76 189.91 152.27 189.59 C 151.07 192.38 149.86 195.16 148.62 197.94 C 147.77 196.63 146.91 195.32 146.06 194.02 C 144.76 194.47 143.45 194.93 142.15 195.39 C 142.07 196.92 141.98 198.46 141.90 200.00 L 136.86 200.00 C 136.81 198.24 136.75 196.47 136.67 194.72 C 135.21 196.40 133.90 198.20 132.59 200.00 L 101.96 200.00 C 107.25 195.57 113.18 192.00 118.75 187.95 C 117.07 186.97 114.93 186.27 114.29 184.21 C 113.51 183.85 112.73 183.49 111.94 183.14 C 112.64 183.16 114.05 183.20 114.76 183.22 C 119.04 183.39 123.34 183.18 127.53 182.25 C 133.10 182.12 136.75 177.44 137.42 172.25 C 133.90 171.72 130.36 171.23 126.79 171.35 C 124.33 171.67 122.24 173.19 119.93 173.99 C 118.88 174.20 117.83 174.38 116.78 174.56 L 117.43 173.64 C 121.32 168.06 128.47 166.71 134.64 165.18 C 134.59 164.81 134.49 164.09 134.44 163.73 C 132.61 163.04 130.79 162.35 128.94 161.72 C 131.01 161.21 133.04 160.58 135.08 159.99 C 134.32 159.43 132.80 158.31 132.05 157.74 C 135.38 158.01 138.72 158.83 142.07 158.29 C 144.65 157.28 146.56 155.18 148.54 153.33 C 148.53 152.15 148.53 150.97 148.54 149.79 C 149.45 149.61 151.27 149.25 152.19 149.07 C 148.19 146.23 143.39 145.25 138.76 143.98 C 142.98 142.91 147.29 142.29 151.61 141.76 C 156.53 143.00 161.58 142.29 166.51 141.54 C 166.51 140.82 166.52 140.10 166.52 139.38 C 167.41 138.70 168.29 138.04 169.19 137.37 C 166.39 137.60 163.53 137.87 160.81 136.99 C 162.98 135.58 165.42 134.69 167.93 134.11 C 164.95 132.54 162.06 130.77 159.56 128.51 C 159.56 128.37 159.56 128.09 159.56 127.95 C 159.99 128.31 160.83 129.05 161.25 129.41 C 164.24 129.54 167.12 131.41 170.10 130.18 C 173.00 129.14 176.05 129.40 179.03 129.87 C 178.81 128.92 178.38 127.02 178.16 126.07 C 180.94 127.39 183.88 128.33 186.88 129.01 C 185.67 127.71 184.50 126.39 183.36 125.03 C 184.44 124.79 185.53 124.56 186.61 124.32 C 187.10 122.63 187.59 120.95 188.09 119.27 C 188.69 123.33 188.77 127.48 189.93 131.45 C 190.34 130.10 190.75 128.74 190.98 127.34 Z" />
</g>
<g id="#f8e6d8ff">
<path fill="#f8e6d8" opacity="1.00" d=" M 121.71 129.52 C 123.32 125.94 122.10 121.10 126.11 118.92 C 126.66 120.13 127.18 121.34 127.68 122.58 C 127.44 127.12 126.71 131.85 128.58 136.18 C 126.64 138.52 124.16 140.32 121.48 141.73 C 121.73 137.67 121.53 133.59 121.71 129.52 Z" />
</g>
<g id="#80685cff">
<path fill="#80685c" opacity="1.00" d=" M 127.68 122.58 C 128.14 122.18 129.06 121.38 129.52 120.99 C 129.47 123.76 129.27 126.79 131.08 129.13 C 130.84 131.41 130.66 133.69 130.41 135.97 C 130.35 136.47 130.23 137.47 130.18 137.97 C 129.64 137.38 129.10 136.78 128.58 136.18 C 126.71 131.85 127.44 127.12 127.68 122.58 Z" />
<path fill="#80685c" opacity="1.00" d=" M 52.04 151.11 C 52.61 151.16 53.74 151.26 54.31 151.30 C 56.79 151.95 59.31 152.91 61.89 152.21 C 61.41 152.54 60.45 153.21 59.98 153.55 L 60.98 154.46 C 59.08 153.28 56.96 152.53 54.86 151.78 C 54.11 152.50 53.37 153.22 52.62 153.94 C 52.47 153.24 52.18 151.82 52.04 151.11 Z" />
</g>
<g id="#c7b3a3ff">
<path fill="#c7b3a3" opacity="1.00" d=" M 113.40 124.17 C 115.12 123.01 116.84 121.84 118.58 120.70 C 118.67 125.97 119.15 131.23 118.84 136.51 C 117.38 133.54 116.76 130.28 115.77 127.15 C 115.10 124.22 111.57 126.19 109.58 126.01 C 110.31 124.29 111.94 123.39 113.44 122.44 L 113.40 124.17 Z" />
</g>
<g id="#cba799ff">
<path fill="#cba799" opacity="1.00" d=" M 128.58 136.18 C 129.10 136.78 129.64 137.38 130.18 137.97 C 130.23 137.47 130.35 136.47 130.41 135.97 C 131.17 136.07 132.71 136.26 133.47 136.35 C 130.10 141.60 126.74 146.98 122.11 151.24 C 118.08 154.37 113.53 156.85 108.74 158.64 C 109.46 158.58 110.90 158.47 111.62 158.41 C 112.22 161.20 112.11 164.11 109.98 166.26 C 106.22 166.30 102.60 167.38 99.04 168.45 C 98.47 169.49 98.29 171.83 96.59 171.09 C 90.53 169.02 84.10 169.99 77.89 170.66 C 75.87 170.96 74.91 168.68 73.57 167.59 C 72.73 167.48 71.89 167.38 71.05 167.29 C 70.61 165.47 70.17 163.64 69.73 161.83 C 68.99 161.48 68.26 161.14 67.53 160.80 C 68.12 157.60 67.68 154.38 66.13 151.51 C 74.08 152.04 82.04 151.48 89.90 150.30 C 98.23 149.50 106.64 148.32 114.44 145.16 C 116.53 144.29 118.66 143.13 119.71 141.01 C 120.18 142.06 120.71 143.09 121.24 144.11 C 121.30 143.52 121.42 142.33 121.48 141.73 C 124.16 140.32 126.64 138.52 128.58 136.18 Z" />
</g>
<g id="#d7d6d2ff">
<path fill="#d7d6d2" opacity="1.00" d=" M 157.69 138.91 C 158.72 138.26 159.76 137.61 160.81 136.99 C 163.53 137.87 166.39 137.60 169.19 137.37 C 168.29 138.04 167.41 138.70 166.52 139.38 C 166.52 140.10 166.51 140.82 166.51 141.54 C 161.58 142.29 156.53 143.00 151.61 141.76 C 153.82 141.07 157.80 142.37 157.69 138.91 Z" />
</g>
<g id="#942822ff">
<path fill="#942822" opacity="1.00" d=" M 23.93 141.63 C 25.76 142.24 27.59 142.84 29.41 143.46 C 31.08 144.07 32.70 144.78 34.34 145.43 C 33.58 145.61 32.05 145.97 31.28 146.15 C 34.11 148.60 38.00 148.85 41.31 150.32 C 41.39 150.81 41.54 151.79 41.62 152.28 C 41.04 152.36 39.88 152.52 39.30 152.61 C 33.81 154.25 28.65 151.48 23.40 150.36 C 22.11 149.85 21.19 150.78 20.41 151.67 C 19.15 150.89 17.93 150.05 16.71 149.22 C 17.13 149.82 17.56 150.43 17.99 151.04 C 17.54 154.59 20.40 157.36 20.75 160.76 C 19.21 163.41 16.04 164.34 13.55 165.83 C 12.46 165.39 11.37 164.93 10.29 164.46 C 11.23 165.37 12.17 166.26 13.11 167.18 C 10.83 167.31 8.62 167.88 6.68 169.10 C 8.52 169.98 10.38 170.84 12.28 171.60 C 13.47 172.25 14.65 172.94 15.78 173.70 L 14.82 173.08 C 11.45 171.50 7.85 174.13 4.59 175.09 C 3.11 176.05 1.68 177.10 0.00 177.68 L 0.00 176.14 C 1.17 175.14 2.40 174.22 3.63 173.31 C 3.77 171.25 3.47 169.20 2.74 167.27 C 4.79 166.00 6.88 164.78 9.00 163.62 C 7.58 162.83 6.16 162.05 4.75 161.25 C 5.81 158.00 4.38 154.13 6.19 151.23 C 11.04 148.15 17.11 147.92 22.26 145.43 C 22.82 144.16 23.37 142.90 23.93 141.63 Z" />
</g>
<g id="#772523ff">
<path fill="#772523" opacity="1.00" d=" M 31.28 146.15 C 32.05 145.97 33.58 145.61 34.34 145.43 C 39.65 147.31 44.93 149.41 50.51 150.36 C 50.48 153.01 50.39 155.67 50.27 158.32 C 49.64 157.60 48.37 156.17 47.73 155.46 C 47.60 156.34 47.35 158.09 47.22 158.97 C 45.91 156.80 43.66 155.53 41.87 153.83 C 41.81 153.44 41.68 152.66 41.62 152.28 C 41.54 151.79 41.39 150.81 41.31 150.32 C 38.00 148.85 34.11 148.60 31.28 146.15 Z" />
</g>
<g id="#1b191fff">
<path fill="#1b191f" opacity="1.00" d=" M 135.36 147.26 C 136.28 146.45 137.50 146.49 138.65 146.44 C 135.08 149.95 131.42 153.37 127.63 156.62 C 126.54 157.83 124.87 156.88 123.54 156.91 C 124.21 155.98 124.86 155.04 125.55 154.12 C 128.77 151.76 132.10 149.57 135.36 147.26 Z" />
</g>
<g id="#d2d1cdff">
<path fill="#d2d1cd" opacity="1.00" d=" M 196.89 147.58 C 197.67 147.51 199.22 147.36 200.00 147.28 L 200.00 152.46 C 198.86 150.90 197.78 149.29 196.89 147.58 Z" />
</g>
<g id="#dbded8ff">
<path fill="#dbded8" opacity="1.00" d=" M 184.43 148.31 C 185.72 147.94 186.96 148.45 188.18 148.84 C 186.47 154.81 178.49 156.93 178.77 163.61 C 182.74 163.50 186.70 163.03 190.67 163.32 C 192.26 159.61 194.17 156.03 195.48 152.20 C 196.37 152.80 197.25 153.41 198.15 154.02 C 198.61 153.84 199.54 153.50 200.00 153.32 L 200.00 156.86 C 198.70 156.57 197.40 156.33 196.10 156.09 C 195.92 160.19 197.47 163.96 198.79 167.75 C 197.33 168.48 195.78 169.02 194.26 169.61 C 194.20 170.13 194.07 171.18 194.01 171.70 C 193.64 173.89 193.81 176.60 191.67 177.96 C 189.82 179.63 189.93 182.45 189.03 184.63 C 188.48 181.98 188.30 179.27 188.22 176.58 C 187.80 176.47 186.96 176.24 186.53 176.13 C 186.46 176.95 186.31 178.57 186.24 179.38 C 185.00 177.17 183.31 175.22 181.09 173.95 C 179.79 170.61 181.64 167.68 183.61 165.12 C 182.38 165.01 181.14 164.89 179.91 164.78 C 177.97 169.47 176.39 174.33 175.86 179.40 C 175.32 181.72 175.05 184.09 175.00 186.47 C 174.27 184.58 173.43 182.74 172.62 180.88 C 173.79 175.17 175.62 169.62 177.48 164.10 C 176.93 162.97 176.36 161.84 175.81 160.71 C 178.78 157.16 182.73 154.56 185.55 150.90 C 185.21 150.02 184.83 149.16 184.43 148.31 Z" />
</g>
<g id="#d1aba9ff">
<path fill="#d1aba9" opacity="1.00" d=" M 16.71 149.22 C 17.93 150.05 19.15 150.89 20.41 151.67 C 24.99 154.09 30.39 153.89 35.07 156.06 C 34.43 156.09 33.15 156.14 32.51 156.16 L 32.38 156.14 C 28.40 155.55 24.46 154.68 20.75 153.13 C 21.23 154.14 21.71 155.15 22.18 156.16 C 22.65 156.37 23.58 156.79 24.05 157.00 C 24.23 157.72 24.58 159.14 24.76 159.85 C 25.23 159.66 26.18 159.29 26.66 159.10 C 27.62 159.75 28.58 160.40 29.55 161.05 C 27.51 161.66 25.49 162.36 23.49 163.10 C 23.34 163.74 23.18 164.39 23.03 165.03 C 22.58 165.24 21.68 165.64 21.23 165.85 C 20.59 165.42 19.30 164.58 18.66 164.16 C 20.86 162.92 23.22 162.02 25.64 161.34 C 22.57 158.31 20.55 154.46 17.99 151.04 C 17.56 150.43 17.13 149.82 16.71 149.22 Z" />
</g>
<g id="#c2b8b9ff">
<path fill="#c2b8b9" opacity="1.00" d=" M 166.09 151.97 C 167.31 150.22 169.49 149.73 171.35 148.94 C 171.89 150.50 172.43 152.06 172.97 153.62 C 177.05 152.47 180.96 150.77 184.43 148.31 C 184.83 149.16 185.21 150.02 185.55 150.90 C 182.73 154.56 178.78 157.16 175.81 160.71 C 174.45 160.32 173.09 159.92 171.74 159.53 C 169.84 162.14 171.25 165.54 169.66 168.26 C 169.34 166.89 169.03 165.52 168.75 164.15 C 167.74 165.94 167.02 168.02 165.44 169.41 C 163.93 170.25 162.26 170.75 160.64 171.35 C 162.01 176.57 160.52 182.03 162.08 187.21 C 161.20 188.05 160.34 188.91 159.53 189.82 C 158.47 193.43 160.16 196.88 161.82 200.00 L 159.67 200.00 C 161.01 197.24 156.35 197.24 157.96 200.00 L 153.64 200.00 C 156.49 195.30 155.28 189.92 154.83 184.82 C 155.90 181.03 155.61 177.10 155.30 173.23 C 156.14 172.64 156.99 172.06 157.83 171.47 C 156.97 171.41 155.24 171.28 154.38 171.22 C 154.58 168.05 155.46 164.98 156.43 161.97 C 157.35 159.02 159.34 156.54 162.09 155.10 C 161.85 157.36 161.73 159.65 161.92 161.93 C 163.27 158.60 163.99 154.95 166.09 151.97 Z" />
</g>
<g id="#652c27ff">
<path fill="#652c27" opacity="1.00" d=" M 20.41 151.67 C 21.19 150.78 22.11 149.85 23.40 150.36 C 28.65 151.48 33.81 154.25 39.30 152.61 C 39.36 153.41 39.47 155.02 39.52 155.82 C 39.02 156.40 38.52 156.98 38.02 157.56 C 37.28 157.18 35.81 156.44 35.07 156.06 C 30.39 153.89 24.99 154.09 20.41 151.67 Z" />
</g>
<g id="#d2d2cfff">
<path fill="#d2d2cf" opacity="1.00" d=" M 50.51 150.36 C 51.79 150.62 53.05 150.95 54.31 151.30 C 53.74 151.26 52.61 151.16 52.04 151.11 C 52.18 151.82 52.47 153.24 52.62 153.94 C 53.37 153.22 54.11 152.50 54.86 151.78 C 56.96 152.53 59.08 153.28 60.98 154.46 C 61.98 157.99 61.74 161.77 59.82 164.95 C 59.19 163.94 58.57 162.93 57.95 161.92 C 57.48 162.76 57.02 163.60 56.56 164.43 C 55.76 163.62 54.97 162.81 54.18 162.00 C 53.68 163.21 53.18 164.42 52.69 165.63 C 51.13 163.73 49.07 162.98 46.72 164.02 C 46.13 163.43 45.53 162.86 44.91 162.31 C 43.38 160.64 41.37 159.59 39.16 159.14 C 39.88 158.60 40.62 158.08 41.39 157.60 C 43.50 158.22 45.13 159.79 46.94 160.98 C 47.01 160.48 47.15 159.47 47.22 158.97 C 47.35 158.09 47.60 156.34 47.73 155.46 C 48.37 156.17 49.64 157.60 50.27 158.32 C 50.39 155.67 50.48 153.01 50.51 150.36 Z" />
</g>
<g id="#733937ff">
<path fill="#733937" opacity="1.00" d=" M 20.75 160.76 C 20.40 157.36 17.54 154.59 17.99 151.04 C 20.55 154.46 22.57 158.31 25.64 161.34 C 23.22 162.02 20.86 162.92 18.66 164.16 C 19.30 164.58 20.59 165.42 21.23 165.85 L 18.59 167.05 C 21.08 167.30 23.57 167.52 26.06 167.65 C 21.79 168.02 17.43 167.83 13.55 165.83 C 16.04 164.34 19.21 163.41 20.75 160.76 Z" />
</g>
<g id="#f3e5ddff">
<path fill="#f3e5dd" opacity="1.00" d=" M 39.30 152.61 C 39.88 152.52 41.04 152.36 41.62 152.28 C 41.68 152.66 41.81 153.44 41.87 153.83 C 43.66 155.53 45.91 156.80 47.22 158.97 C 47.15 159.47 47.01 160.48 46.94 160.98 C 45.13 159.79 43.50 158.22 41.39 157.60 C 40.62 158.08 39.88 158.60 39.16 159.14 C 41.37 159.59 43.38 160.64 44.91 162.31 C 40.12 162.49 35.82 159.34 32.51 156.16 C 33.15 156.14 34.43 156.09 35.07 156.06 C 35.81 156.44 37.28 157.18 38.02 157.56 C 38.52 156.98 39.02 156.40 39.52 155.82 C 39.47 155.02 39.36 153.41 39.30 152.61 Z" />
</g>
<g id="#d1b1a3ff">
<path fill="#d1b1a3" opacity="1.00" d=" M 61.89 152.21 C 63.29 151.92 64.71 151.68 66.13 151.51 C 67.68 154.38 68.12 157.60 67.53 160.80 C 68.26 161.14 68.99 161.48 69.73 161.83 C 70.17 163.64 70.61 165.47 71.05 167.29 C 71.89 167.38 72.73 167.48 73.57 167.59 C 74.91 168.68 75.87 170.96 77.89 170.66 C 84.10 169.99 90.53 169.02 96.59 171.09 C 98.29 171.83 98.47 169.49 99.04 168.45 C 102.60 167.38 106.22 166.30 109.98 166.26 C 112.11 164.11 112.22 161.20 111.62 158.41 C 116.42 157.59 121.19 156.31 125.55 154.12 C 124.86 155.04 124.21 155.98 123.54 156.91 C 119.28 160.81 115.22 164.89 111.88 169.62 C 115.43 166.49 119.08 163.43 123.26 161.17 C 121.98 162.74 120.67 164.30 119.34 165.85 C 121.94 164.79 124.61 163.90 127.35 163.26 C 127.40 163.89 127.51 165.14 127.57 165.76 C 123.81 166.42 120.29 167.91 116.64 168.98 C 116.60 169.83 116.56 170.67 116.57 171.52 C 115.13 173.11 113.75 174.74 112.46 176.45 C 113.98 176.04 115.54 175.58 116.78 174.56 C 117.83 174.38 118.88 174.20 119.93 173.99 C 120.18 174.85 120.45 175.72 120.71 176.59 C 122.34 176.80 123.98 177.02 125.62 177.25 C 123.91 179.16 121.55 181.33 118.93 179.59 C 117.59 180.52 116.00 180.93 114.47 181.41 C 114.54 181.86 114.69 182.77 114.76 183.22 C 114.05 183.20 112.64 183.16 111.94 183.14 C 112.73 183.49 113.51 183.85 114.29 184.21 C 114.93 186.27 117.07 186.97 118.75 187.95 C 113.18 192.00 107.25 195.57 101.96 200.00 L 99.23 200.00 C 100.49 197.68 102.68 196.06 104.27 194.07 C 104.22 188.33 105.70 182.71 105.35 176.94 C 103.31 176.64 100.96 175.62 99.16 177.15 C 95.35 180.12 92.48 184.15 88.42 186.85 C 88.18 185.45 87.93 184.05 87.69 182.65 C 82.26 181.68 75.48 181.99 72.15 176.75 C 68.39 170.50 65.58 163.60 65.11 156.24 C 64.72 156.34 63.96 156.55 63.58 156.65 C 62.68 155.95 61.83 155.20 60.98 154.46 L 59.98 153.55 C 60.45 153.21 61.41 152.54 61.89 152.21 Z" />
</g>
<g id="#f6f5f2ff">
<path fill="#f6f5f2" opacity="1.00" d=" M 20.75 153.13 C 24.46 154.68 28.40 155.55 32.38 156.14 C 31.63 157.43 30.19 157.51 28.88 157.72 C 31.36 158.62 33.90 159.48 36.13 160.92 C 38.05 162.95 39.12 165.59 40.60 167.93 C 42.65 169.30 44.90 170.29 47.12 171.33 C 45.09 172.94 42.73 173.99 40.23 174.63 C 41.15 175.37 42.08 176.11 43.01 176.86 C 41.08 176.63 39.16 176.39 37.23 176.25 C 33.76 176.92 31.53 179.75 29.32 182.24 C 29.15 179.97 29.74 177.77 30.53 175.67 C 28.67 176.63 26.82 177.62 25.00 178.64 C 23.42 177.38 21.86 176.10 20.30 174.82 C 20.95 173.71 21.60 172.61 22.25 171.51 C 21.85 171.45 21.05 171.33 20.65 171.27 C 17.86 170.67 15.05 171.17 12.28 171.60 C 10.38 170.84 8.52 169.98 6.68 169.10 C 8.62 167.88 10.83 167.31 13.11 167.18 C 12.17 166.26 11.23 165.37 10.29 164.46 C 11.37 164.93 12.46 165.39 13.55 165.83 C 17.43 167.83 21.79 168.02 26.06 167.65 C 23.57 167.52 21.08 167.30 18.59 167.05 L 21.23 165.85 C 21.68 165.64 22.58 165.24 23.03 165.03 C 23.18 164.39 23.34 163.74 23.49 163.10 C 25.49 162.36 27.51 161.66 29.55 161.05 C 28.58 160.40 27.62 159.75 26.66 159.10 C 26.18 159.29 25.23 159.66 24.76 159.85 C 24.58 159.14 24.23 157.72 24.05 157.00 C 23.58 156.79 22.65 156.37 22.18 156.16 C 21.71 155.15 21.23 154.14 20.75 153.13 Z" />
</g>
<g id="#c4b8b5ff">
<path fill="#c4b8b5" opacity="1.00" d=" M 60.98 154.46 C 61.83 155.20 62.68 155.95 63.58 156.65 C 63.46 158.63 63.48 160.61 63.56 162.59 C 63.02 164.68 62.34 166.74 61.63 168.77 C 60.56 168.97 59.50 169.18 58.43 169.38 C 58.16 168.85 57.61 167.80 57.34 167.27 C 55.57 167.42 53.80 167.56 52.03 167.69 C 53.88 169.55 55.97 171.53 55.88 174.38 C 54.44 174.68 52.99 174.99 51.55 175.30 C 51.94 175.92 52.34 176.55 52.74 177.18 C 50.37 176.44 48.02 175.64 45.70 174.76 C 47.36 174.00 48.98 173.13 50.59 172.27 C 49.76 171.47 48.93 170.66 48.10 169.86 C 48.99 169.42 49.88 168.99 50.77 168.55 C 49.74 167.38 48.71 166.20 47.67 165.04 L 46.72 164.02 C 49.07 162.98 51.13 163.73 52.69 165.63 C 53.18 164.42 53.68 163.21 54.18 162.00 C 54.97 162.81 55.76 163.62 56.56 164.43 C 57.02 163.60 57.48 162.76 57.95 161.92 C 58.57 162.93 59.19 163.94 59.82 164.95 C 61.74 161.77 61.98 157.99 60.98 154.46 Z" />
</g>
<g id="#dce2e0ff">
<path fill="#dce2e0" opacity="1.00" d=" M 32.38 156.14 L 32.51 156.16 C 35.82 159.34 40.12 162.49 44.91 162.31 C 45.53 162.86 46.13 163.43 46.72 164.02 L 47.67 165.04 C 45.07 165.33 42.58 166.17 40.60 167.93 C 39.12 165.59 38.05 162.95 36.13 160.92 C 33.90 159.48 31.36 158.62 28.88 157.72 C 30.19 157.51 31.63 157.43 32.38 156.14 Z" />
</g>
<g id="#dec4b3ff">
<path fill="#dec4b3" opacity="1.00" d=" M 63.58 156.65 C 63.96 156.55 64.72 156.34 65.11 156.24 C 65.58 163.60 68.39 170.50 72.15 176.75 C 75.48 181.99 82.26 181.68 87.69 182.65 C 87.93 184.05 88.18 185.45 88.42 186.85 C 92.48 184.15 95.35 180.12 99.16 177.15 C 100.96 175.62 103.31 176.64 105.35 176.94 C 105.70 182.71 104.22 188.33 104.27 194.07 C 102.68 196.06 100.49 197.68 99.23 200.00 L 94.69 200.00 C 94.88 199.48 95.27 198.44 95.46 197.92 C 95.77 197.74 96.40 197.37 96.71 197.19 C 96.35 193.76 96.52 189.98 94.13 187.20 C 90.61 189.65 87.34 192.43 83.93 195.02 C 82.64 194.02 81.26 193.10 80.15 191.89 C 79.34 190.01 79.70 187.52 77.88 186.18 C 76.17 184.57 73.72 184.37 71.54 183.83 C 68.47 181.42 65.86 178.06 65.68 174.01 C 65.46 170.12 64.82 166.28 63.56 162.59 C 63.48 160.61 63.46 158.63 63.58 156.65 Z" />
</g>
<g id="#d0c6c4ff">
<path fill="#d0c6c4" opacity="1.00" d=" M 169.66 168.26 C 171.25 165.54 169.84 162.14 171.74 159.53 C 173.09 159.92 174.45 160.32 175.81 160.71 C 176.36 161.84 176.93 162.97 177.48 164.10 C 175.62 169.62 173.79 175.17 172.62 180.88 C 172.42 179.65 172.28 178.41 172.22 177.16 C 172.49 174.80 173.01 172.28 171.72 170.10 C 168.66 172.06 167.87 176.49 167.22 179.90 C 166.89 182.66 165.85 185.25 164.83 187.81 C 164.27 189.23 163.71 190.65 163.16 192.07 C 162.89 190.86 162.35 188.42 162.08 187.21 C 160.52 182.03 162.01 176.57 160.64 171.35 C 162.26 170.75 163.93 170.25 165.44 169.41 C 167.02 168.02 167.74 165.94 168.75 164.15 C 169.03 165.52 169.34 166.89 169.66 168.26 Z" />
</g>
<g id="#a39e9aff">
<path fill="#a39e9a" opacity="1.00" d=" M 127.33 161.57 C 127.73 161.60 128.54 161.68 128.94 161.72 C 130.79 162.35 132.61 163.04 134.44 163.73 C 134.49 164.09 134.59 164.81 134.64 165.18 C 128.47 166.71 121.32 168.06 117.43 173.64 C 117.22 173.11 116.79 172.05 116.57 171.52 C 116.56 170.67 116.60 169.83 116.64 168.98 C 120.29 167.91 123.81 166.42 127.57 165.76 C 127.51 165.14 127.40 163.89 127.35 163.26 C 127.34 162.84 127.33 161.99 127.33 161.57 Z" />
</g>
<g id="#dcd7d4ff">
<path fill="#dcd7d4" opacity="1.00" d=" M 149.77 165.02 C 150.93 162.43 154.10 162.54 156.43 161.97 C 155.46 164.98 154.58 168.05 154.38 171.22 C 153.77 170.34 153.20 169.44 152.62 168.56 C 151.91 169.18 151.19 169.81 150.48 170.43 C 150.07 168.67 149.25 166.85 149.77 165.02 Z" />
</g>
<g id="#fbefd4ff">
<path fill="#fbefd4" opacity="1.00" d=" M 63.56 162.59 C 64.82 166.28 65.46 170.12 65.68 174.01 C 65.86 178.06 68.47 181.42 71.54 183.83 C 73.24 185.57 75.31 186.92 76.90 188.75 C 77.75 191.12 77.93 193.70 79.03 195.98 C 82.35 197.11 86.06 196.83 88.98 194.81 C 90.31 195.07 91.65 195.35 92.99 195.62 C 92.36 197.09 91.75 198.56 91.06 200.00 L 53.98 200.00 C 55.22 195.08 57.67 190.55 58.64 185.54 C 58.06 185.66 56.90 185.89 56.32 186.01 L 56.51 185.62 C 57.42 185.15 58.34 184.69 59.28 184.26 C 59.66 179.05 59.62 173.69 61.63 168.77 C 62.34 166.74 63.02 164.68 63.56 162.59 Z" />
</g>
<g id="#d3cdcdff">
<path fill="#d3cdcd" opacity="1.00" d=" M 40.60 167.93 C 42.58 166.17 45.07 165.33 47.67 165.04 C 48.71 166.20 49.74 167.38 50.77 168.55 C 49.88 168.99 48.99 169.42 48.10 169.86 C 48.93 170.66 49.76 171.47 50.59 172.27 C 48.98 173.13 47.36 174.00 45.70 174.76 C 45.33 174.92 44.60 175.24 44.24 175.40 L 45.87 176.18 C 42.93 178.73 38.72 178.23 35.16 179.19 C 35.85 178.21 36.54 177.23 37.23 176.25 C 39.16 176.39 41.08 176.63 43.01 176.86 C 42.08 176.11 41.15 175.37 40.23 174.63 C 42.73 173.99 45.09 172.94 47.12 171.33 C 44.90 170.29 42.65 169.30 40.60 167.93 Z" />
</g>
<g id="#c7c2beff">
<path fill="#c7c2be" opacity="1.00" d=" M 175.86 179.40 C 176.39 174.33 177.97 169.47 179.91 164.78 C 181.14 164.89 182.38 165.01 183.61 165.12 C 181.64 167.68 179.79 170.61 181.09 173.95 C 183.31 175.22 185.00 177.17 186.24 179.38 C 186.15 180.15 185.98 181.68 185.89 182.45 C 185.05 180.74 184.31 178.98 183.59 177.22 L 183.36 177.95 L 182.00 179.31 C 181.37 178.00 180.75 176.68 180.12 175.37 C 179.92 175.57 179.50 175.97 179.29 176.16 C 178.14 177.24 176.99 178.31 175.86 179.40 Z" />
</g>
<g id="#bba6a0ff">
<path fill="#bba6a0" opacity="1.00" d=" M 52.03 167.69 C 53.80 167.56 55.57 167.42 57.34 167.27 C 57.61 167.80 58.16 168.85 58.43 169.38 C 59.50 169.18 60.56 168.97 61.63 168.77 C 59.62 173.69 59.66 179.05 59.28 184.26 C 58.34 184.69 57.42 185.15 56.51 185.62 L 56.32 186.01 C 55.01 186.46 53.66 186.79 52.29 187.00 C 52.11 187.44 51.74 188.30 51.56 188.74 C 51.13 188.71 50.28 188.67 49.86 188.64 C 48.14 185.86 46.17 183.26 44.01 180.81 C 45.59 180.20 47.16 179.58 48.72 178.96 C 47.86 177.95 47.01 176.90 45.87 176.18 L 44.24 175.40 C 44.60 175.24 45.33 174.92 45.70 174.76 C 48.02 175.64 50.37 176.44 52.74 177.18 C 52.34 176.55 51.94 175.92 51.55 175.30 C 52.99 174.99 54.44 174.68 55.88 174.38 C 55.97 171.53 53.88 169.55 52.03 167.69 Z" />
</g>
<g id="#b2a9a4ff">
<path fill="#b2a9a4" opacity="1.00" d=" M 167.22 179.90 C 167.87 176.49 168.66 172.06 171.72 170.10 C 173.01 172.28 172.49 174.80 172.22 177.16 C 169.52 177.63 170.07 181.06 169.00 182.81 C 168.56 182.08 167.67 180.63 167.22 179.90 Z" />
</g>
<g id="#dad4d0ff">
<path fill="#dad4d0" opacity="1.00" d=" M 12.28 171.60 C 15.05 171.17 17.86 170.67 20.65 171.27 C 19.55 172.45 18.44 173.60 17.29 174.73 C 16.91 174.48 16.16 173.96 15.78 173.70 C 14.65 172.94 13.47 172.25 12.28 171.60 Z" />
</g>
<g id="#ede7e3ff">
<path fill="#ede7e3" opacity="1.00" d=" M 20.65 171.27 C 21.05 171.33 21.85 171.45 22.25 171.51 C 21.60 172.61 20.95 173.71 20.30 174.82 C 21.86 176.10 23.42 177.38 25.00 178.64 C 26.82 177.62 28.67 176.63 30.53 175.67 C 29.74 177.77 29.15 179.97 29.32 182.24 C 31.53 179.75 33.76 176.92 37.23 176.25 C 36.54 177.23 35.85 178.21 35.16 179.19 C 35.64 180.23 36.14 181.27 36.63 182.32 C 35.94 182.46 34.56 182.74 33.87 182.88 C 34.57 184.16 35.28 185.44 36.00 186.71 C 33.83 186.22 31.65 185.83 29.45 185.58 C 31.01 187.98 33.69 189.08 36.17 190.25 C 32.34 189.95 28.98 188.10 25.52 186.64 C 23.95 185.68 22.55 187.23 21.17 187.79 C 20.08 187.36 18.96 186.99 17.85 186.61 C 19.13 185.77 20.45 184.98 21.75 184.17 C 18.27 180.84 13.92 178.35 8.93 178.67 C 10.89 177.73 12.99 177.18 15.09 176.67 C 15.00 175.47 14.91 174.27 14.82 173.08 L 15.78 173.70 C 16.16 173.96 16.91 174.48 17.29 174.73 C 18.44 173.60 19.55 172.45 20.65 171.27 Z" />
</g>
<g id="#b6a4a0ff">
<path fill="#b6a4a0" opacity="1.00" d=" M 119.93 173.99 C 122.24 173.19 124.33 171.67 126.79 171.35 C 127.83 171.70 128.86 172.07 129.90 172.46 C 129.37 173.21 128.85 173.97 128.34 174.73 C 128.69 174.94 129.40 175.36 129.75 175.57 C 128.69 176.72 127.63 177.88 126.59 179.05 C 126.93 180.10 127.26 181.17 127.53 182.25 C 123.34 183.18 119.04 183.39 114.76 183.22 C 114.69 182.77 114.54 181.86 114.47 181.41 C 116.00 180.93 117.59 180.52 118.93 179.59 C 121.55 181.33 123.91 179.16 125.62 177.25 C 123.98 177.02 122.34 176.80 120.71 176.59 C 120.45 175.72 120.18 174.85 119.93 173.99 Z" />
</g>
<g id="#dbcec8ff">
<path fill="#dbcec8" opacity="1.00" d=" M 126.79 171.35 C 130.36 171.23 133.90 171.72 137.42 172.25 C 136.75 177.44 133.10 182.12 127.53 182.25 C 127.26 181.17 126.93 180.10 126.59 179.05 C 127.63 177.88 128.69 176.72 129.75 175.57 C 129.40 175.36 128.69 174.94 128.34 174.73 C 128.85 173.97 129.37 173.21 129.90 172.46 C 128.86 172.07 127.83 171.70 126.79 171.35 Z" />
</g>
<g id="#15110eff">
<path fill="#15110e" opacity="1.00" d=" M 194.01 171.70 C 196.00 171.55 198.00 171.39 200.00 171.25 L 200.00 200.00 L 161.82 200.00 C 160.16 196.88 158.47 193.43 159.53 189.82 C 160.11 189.62 161.26 189.21 161.84 189.01 C 162.06 190.84 162.28 192.67 162.51 194.51 C 162.92 194.47 163.75 194.41 164.17 194.38 C 164.34 192.19 164.52 189.99 164.83 187.81 C 165.85 185.25 166.89 182.66 167.22 179.90 C 167.67 180.63 168.56 182.08 169.00 182.81 C 170.07 181.06 169.52 177.63 172.22 177.16 C 172.28 178.41 172.42 179.65 172.62 180.88 C 173.43 182.74 174.27 184.58 175.00 186.47 C 175.05 184.09 175.32 181.72 175.86 179.40 C 176.99 178.31 178.14 177.24 179.29 176.16 C 180.26 178.37 180.69 180.74 181.00 183.12 C 182.22 181.61 182.96 179.83 183.36 177.95 L 183.59 177.22 C 184.31 178.98 185.05 180.74 185.89 182.45 C 185.98 181.68 186.15 180.15 186.24 179.38 C 186.31 178.57 186.46 176.95 186.53 176.13 C 186.96 176.24 187.80 176.47 188.22 176.58 C 188.30 179.27 188.48 181.98 189.03 184.63 C 189.93 182.45 189.82 179.63 191.67 177.96 C 193.81 176.60 193.64 173.89 194.01 171.70 Z" />
</g>
<g id="#b19189ff">
<path fill="#b19189" opacity="1.00" d=" M 116.57 171.52 C 116.79 172.05 117.22 173.11 117.43 173.64 L 116.78 174.56 C 115.54 175.58 113.98 176.04 112.46 176.45 C 113.75 174.74 115.13 173.11 116.57 171.52 Z" />
</g>
<g id="#d7d0c6ff">
<path fill="#d7d0c6" opacity="1.00" d=" M 4.59 175.09 C 7.85 174.13 11.45 171.50 14.82 173.08 C 14.91 174.27 15.00 175.47 15.09 176.67 C 12.99 177.18 10.89 177.73 8.93 178.67 C 8.49 179.04 7.60 179.77 7.16 180.13 C 7.96 181.22 8.76 182.30 9.57 183.40 C 7.15 186.60 3.11 184.22 0.00 183.70 L 0.00 180.97 C 2.57 179.96 4.82 178.36 6.95 176.64 C 6.36 176.25 5.18 175.48 4.59 175.09 Z" />
</g>
<g id="#ae6262ff">
<path fill="#ae6262" opacity="1.00" d=" M 0.00 177.68 C 1.68 177.10 3.11 176.05 4.59 175.09 C 5.18 175.48 6.36 176.25 6.95 176.64 C 4.82 178.36 2.57 179.96 0.00 180.97 L 0.00 177.68 Z" />
</g>
<g id="#c6b7b0ff">
<path fill="#c6b7b0" opacity="1.00" d=" M 45.87 176.18 C 47.01 176.90 47.86 177.95 48.72 178.96 C 47.16 179.58 45.59 180.20 44.01 180.81 C 46.17 183.26 48.14 185.86 49.86 188.64 C 50.28 188.67 51.13 188.71 51.56 188.74 C 51.74 188.30 52.11 187.44 52.29 187.00 C 52.76 188.81 53.25 190.61 53.74 192.42 C 49.75 191.25 45.61 191.07 41.50 191.38 C 43.52 192.85 45.42 194.52 46.90 196.56 C 45.15 196.05 43.39 195.58 41.59 195.30 C 40.51 192.92 38.73 191.00 36.17 190.25 C 33.69 189.08 31.01 187.98 29.45 185.58 C 31.65 185.83 33.83 186.22 36.00 186.71 C 35.28 185.44 34.57 184.16 33.87 182.88 C 34.56 182.74 35.94 182.46 36.63 182.32 C 36.14 181.27 35.64 180.23 35.16 179.19 C 38.72 178.23 42.93 178.73 45.87 176.18 Z" />
</g>
<g id="#4c4b47ff">
<path fill="#4c4b47" opacity="1.00" d=" M 179.29 176.16 C 179.50 175.97 179.92 175.57 180.12 175.37 C 180.75 176.68 181.37 178.00 182.00 179.31 L 183.36 177.95 C 182.96 179.83 182.22 181.61 181.00 183.12 C 180.69 180.74 180.26 178.37 179.29 176.16 Z" />
</g>
<g id="#f6f5f0ff">
<path fill="#f6f5f0" opacity="1.00" d=" M 7.16 180.13 C 7.60 179.77 8.49 179.04 8.93 178.67 C 13.92 178.35 18.27 180.84 21.75 184.17 C 20.45 184.98 19.13 185.77 17.85 186.61 C 17.28 189.71 19.54 192.18 20.27 195.03 C 19.96 196.84 18.96 198.44 18.04 200.00 L 0.00 200.00 L 0.00 199.65 C 1.79 197.56 2.99 195.08 2.95 192.28 C 1.96 191.78 0.98 191.26 0.00 190.73 L 0.00 183.70 C 3.11 184.22 7.15 186.60 9.57 183.40 C 8.76 182.30 7.96 181.22 7.16 180.13 Z" />
</g>
<g id="#e7d5c1ff">
<path fill="#e7d5c1" opacity="1.00" d=" M 71.54 183.83 C 73.72 184.37 76.17 184.57 77.88 186.18 C 79.70 187.52 79.34 190.01 80.15 191.89 C 81.26 193.10 82.64 194.02 83.93 195.02 C 87.34 192.43 90.61 189.65 94.13 187.20 C 96.52 189.98 96.35 193.76 96.71 197.19 C 96.40 197.37 95.77 197.74 95.46 197.92 C 95.27 198.44 94.88 199.48 94.69 200.00 L 91.06 200.00 C 91.75 198.56 92.36 197.09 92.99 195.62 C 91.65 195.35 90.31 195.07 88.98 194.81 C 86.06 196.83 82.35 197.11 79.03 195.98 C 77.93 193.70 77.75 191.12 76.90 188.75 C 75.31 186.92 73.24 185.57 71.54 183.83 Z" />
</g>
<g id="#dddbd6ff">
<path fill="#dddbd6" opacity="1.00" d=" M 153.73 190.56 C 154.06 188.64 154.41 186.72 154.83 184.82 C 155.28 189.92 156.49 195.30 153.64 200.00 L 141.90 200.00 C 141.98 198.46 142.07 196.92 142.15 195.39 C 143.45 194.93 144.76 194.47 146.06 194.02 C 146.91 195.32 147.77 196.63 148.62 197.94 C 149.86 195.16 151.07 192.38 152.27 189.59 C 152.76 189.91 153.24 190.23 153.73 190.56 Z" />
</g>
<g id="#faf5efff">
<path fill="#faf5ef" opacity="1.00" d=" M 21.17 187.79 C 22.55 187.23 23.95 185.68 25.52 186.64 C 28.98 188.10 32.34 189.95 36.17 190.25 C 38.73 191.00 40.51 192.92 41.59 195.30 C 42.67 196.70 43.93 197.96 45.18 199.22 L 44.00 200.00 L 38.93 200.00 C 39.13 199.65 39.53 198.96 39.73 198.61 C 37.39 198.07 35.04 197.56 32.65 197.41 C 28.54 194.54 25.30 190.63 21.17 187.79 Z" />
</g>
<g id="#130b07ff">
<path fill="#130b07" opacity="1.00" d=" M 56.32 186.01 C 56.90 185.89 58.06 185.66 58.64 185.54 C 57.67 190.55 55.22 195.08 53.98 200.00 L 48.06 200.00 C 47.65 198.86 47.31 197.70 46.90 196.56 C 45.42 194.52 43.52 192.85 41.50 191.38 C 45.61 191.07 49.75 191.25 53.74 192.42 C 53.25 190.61 52.76 188.81 52.29 187.00 C 53.66 186.79 55.01 186.46 56.32 186.01 Z" />
</g>
<g id="#cccbc6ff">
<path fill="#cccbc6" opacity="1.00" d=" M 17.85 186.61 C 18.96 186.99 20.08 187.36 21.17 187.79 C 25.30 190.63 28.54 194.54 32.65 197.41 C 28.19 198.02 24.92 194.41 21.47 192.22 C 21.56 194.90 21.32 197.62 19.98 200.00 L 18.04 200.00 C 18.96 198.44 19.96 196.84 20.27 195.03 C 19.54 192.18 17.28 189.71 17.85 186.61 Z" />
</g>
<g id="#534e4aff">
<path fill="#534e4a" opacity="1.00" d=" M 159.53 189.82 C 160.34 188.91 161.20 188.05 162.08 187.21 C 162.35 188.42 162.89 190.86 163.16 192.07 C 163.71 190.65 164.27 189.23 164.83 187.81 C 164.52 189.99 164.34 192.19 164.17 194.38 C 163.75 194.41 162.92 194.47 162.51 194.51 C 162.28 192.67 162.06 190.84 161.84 189.01 C 161.26 189.21 160.11 189.62 159.53 189.82 Z" />
</g>
<g id="#dcdbd6ff">
<path fill="#dcdbd6" opacity="1.00" d=" M 0.00 190.73 C 0.98 191.26 1.96 191.78 2.95 192.28 C 2.99 195.08 1.79 197.56 0.00 199.65 L 0.00 190.73 Z" />
</g>
<g id="#b8b0a7ff">
<path fill="#b8b0a7" opacity="1.00" d=" M 21.47 192.22 C 24.92 194.41 28.19 198.02 32.65 197.41 C 35.04 197.56 37.39 198.07 39.73 198.61 C 39.53 198.96 39.13 199.65 38.93 200.00 L 19.98 200.00 C 21.32 197.62 21.56 194.90 21.47 192.22 Z" />
</g>
<g id="#504c49ff">
<path fill="#504c49" opacity="1.00" d=" M 41.59 195.30 C 43.39 195.58 45.15 196.05 46.90 196.56 C 47.31 197.70 47.65 198.86 48.06 200.00 L 44.00 200.00 L 45.18 199.22 C 43.93 197.96 42.67 196.70 41.59 195.30 Z" />
</g>
<g id="#dcdcd8ff">
<path fill="#dcdcd8" opacity="1.00" d=" M 132.59 200.00 C 133.90 198.20 135.21 196.40 136.67 194.72 C 136.75 196.47 136.81 198.24 136.86 200.00 L 132.59 200.00 Z" />
</g>
<g id="#544947ff">
<path fill="#544947" opacity="1.00" d=" M 157.96 200.00 C 156.35 197.24 161.01 197.24 159.67 200.00 L 157.96 200.00 Z" />
</g>
</svg>
